<?xml version="1.0" encoding="utf-8"?>
<!-- Generator: Adobe Illustrator 16.0.0, SVG Export Plug-In . SVG Version: 6.00 Build 0)  -->
<!DOCTYPE svg PUBLIC "-//W3C//DTD SVG 1.1//EN" "http://www.w3.org/Graphics/SVG/1.1/DTD/svg11.dtd">
<svg version="1.1" id="Layer_1" xmlns="http://www.w3.org/2000/svg" xmlns:xlink="http://www.w3.org/1999/xlink" x="0px" y="0px"
	 width="75px" height="75px" viewBox="0 0 75 75" enable-background="new 0 0 75 75" xml:space="preserve">
<path fill-rule="evenodd" clip-rule="evenodd" fill="#175E8E" d="M18.89,22.626c0,3.969,0.003,7.938-0.005,11.908
	c0,0.357,0.049,0.576,0.428,0.771c1.122,0.576,1.685,1.554,1.713,2.813c0.022,1.003,0.027,2.007-0.005,3.01
	c-0.014,0.445,0.094,0.632,0.561,0.776c5.285,1.629,8.986,6.493,9.079,11.873c0.019,1.091-0.335,1.499-1.409,1.443
	c-0.631-0.033-0.746,0.179-0.741,0.763c0.029,3.188-0.004,6.378,0.026,9.566c0.007,0.775-0.259,1.278-0.972,1.562
	c-0.248,0.098-0.472,0.254-0.722,0.345c-0.366,0.134-0.463,0.365-0.475,0.753c-0.047,1.517-1.123,2.735-2.624,3.038
	c-1.36,0.274-2.812-0.458-3.447-1.74c-0.651-1.313-0.345-2.857,0.76-3.834c1.111-0.982,2.723-1.1,3.943-0.201
	c0.405,0.298,0.657,0.143,1.011,0.005c0.39-0.151,0.374-0.429,0.374-0.748c-0.004-2.988-0.013-5.977,0.009-8.964
	c0.003-0.453-0.135-0.543-0.556-0.538c-1.302,0.015-1.521-0.212-1.612-1.533c-0.229-3.346-3.096-5.978-6.479-5.948
	c-3.368,0.03-6.186,2.736-6.341,6.091c-0.051,1.099-0.368,1.433-1.481,1.386c-0.561-0.023-0.689,0.132-0.684,0.687
	c0.031,2.942,0.017,5.887,0.011,8.83c0,0.326,0.004,0.589,0.383,0.743c0.359,0.146,0.61,0.276,1.01-0.018
	c1.217-0.892,2.832-0.77,3.943,0.216c1.1,0.975,1.402,2.529,0.747,3.836c-0.644,1.283-2.093,2.009-3.453,1.729
	c-1.503-0.31-2.571-1.525-2.611-3.047c-0.011-0.396-0.122-0.637-0.484-0.745c-1.412-0.423-1.757-1.379-1.705-2.795
	c0.108-2.917,0.023-5.841,0.042-8.762c0.003-0.476-0.052-0.698-0.624-0.675c-1.219,0.049-1.549-0.323-1.521-1.53
	c0.125-5.347,3.835-10.178,9.096-11.793c0.43-0.133,0.555-0.294,0.542-0.722c-0.03-1.025-0.026-2.052-0.005-3.077
	c0.025-1.206,0.561-2.161,1.613-2.739c0.421-0.232,0.533-0.467,0.532-0.912c-0.012-7.827-0.013-15.654-0.006-23.482
	c0.003-3.054,1.965-5.416,4.905-5.946c3.498-0.631,6.808,2.06,6.854,5.644c0.047,3.59,0.024,7.18,0.012,10.771
	c-0.021,5.69,1.634,10.831,5.059,15.379c3.848,5.109,5.724,10.848,5.654,17.241c-0.033,3.1-0.025,6.2,0.003,9.299
	c0.024,2.737,1.993,5.12,4.611,5.66c2.792,0.575,5.508-0.807,6.648-3.383c0.338-0.764,0.505-1.563,0.505-2.398
	c0.001-7.358-0.004-14.718,0.014-22.076c0.001-0.416-0.189-0.652-0.44-0.91c-4.709-4.845-9.411-9.696-14.123-14.538
	c-2.489-2.557-3.72-5.608-3.635-9.174c0.156-6.585,5.608-11.786,12.181-11.598c2.478,0.071,4.699,0.924,6.646,2.459
	c0.3,0.237,0.468,0.314,0.821,0.037c6.756-5.307,16.688-1.852,18.586,7.004c0.927,4.323-0.304,8.112-3.371,11.284
	c-4.696,4.857-9.407,9.7-14.124,14.537c-0.306,0.313-0.421,0.621-0.42,1.051c0.012,7.314,0.017,14.629,0.005,21.943
	c-0.007,3.78-2.561,6.967-6.238,7.84c-4.889,1.159-9.75-2.608-9.808-7.638c-0.037-3.278-0.012-6.557-0.008-9.834
	c0.007-5.617-1.618-10.709-4.997-15.198c-2.997-3.983-4.886-8.4-5.504-13.352c-0.144-1.151-0.209-2.307-0.207-3.469
	c0.007-3.613,0.014-7.226-0.004-10.838c-0.008-1.592-0.992-2.929-2.477-3.467c-1.482-0.536-3.097-0.112-4.118,1.097
	c-0.63,0.746-0.896,1.617-0.894,2.592C18.895,14.866,18.89,18.746,18.89,22.626z M49.354,18.202
	c-0.565,0.748-1.07,1.367-1.519,2.025c-0.376,0.552-0.842,0.772-1.515,0.767c-3.278-0.025-6.557-0.013-9.835-0.008
	c-0.205,0-0.431-0.073-0.65,0.084c0.465,1.13,1.133,2.091,1.959,2.942c4.628,4.769,9.264,9.53,13.887,14.303
	c0.284,0.292,0.436,0.37,0.768,0.026c4.634-4.795,9.313-9.545,13.919-14.365c2.5-2.616,3.389-5.786,2.548-9.315
	c-0.852-3.575-3.03-6.09-6.585-7.169c-3.508-1.065-6.639-0.212-9.312,2.296c-0.713,0.669-1.19,0.679-1.894-0.008
	c-1.694-1.658-3.73-2.585-6.088-2.696C38.974,6.8,34.104,12.301,35.033,18.316c0.064,0.419,0.188,0.537,0.608,0.535
	c3.345-0.018,6.689-0.016,10.035-0.001c0.375,0.001,0.605-0.112,0.826-0.414c0.828-1.133,1.687-2.245,2.531-3.365
	c0.293-0.389,0.673-0.603,1.158-0.482c0.475,0.118,0.738,0.447,0.831,0.939c0.253,1.334,0.524,2.664,0.791,3.995
	c0.24,1.204,0.483,2.408,0.76,3.779c0.97-1.702,1.854-3.239,2.723-4.786c0.292-0.52,0.692-0.761,1.299-0.752
	c1.516,0.022,3.032,0.007,4.549,0.007c1.664,0,1.646,0,1.648,1.645c0,0.424-0.118,0.513-0.521,0.507
	c-1.583-0.024-3.166,0.006-4.749-0.021c-0.412-0.007-0.625,0.124-0.826,0.482c-1.162,2.077-2.361,4.133-3.531,6.206
	c-0.287,0.508-0.648,0.877-1.261,0.798c-0.628-0.082-0.847-0.546-0.957-1.122C50.436,23.622,49.904,20.982,49.354,18.202z
	 M27.411,53.097c0.223,0,0.449-0.023,0.668,0.006c0.426,0.056,0.457-0.139,0.408-0.497c-0.72-5.231-4.923-9.123-10.154-9.385
	c-5.089-0.255-9.691,3.221-10.906,8.238c-0.397,1.644-0.397,1.644,1.254,1.638c0.045,0,0.09-0.005,0.134,0.001
	c0.376,0.056,0.531-0.063,0.584-0.484c0.528-4.121,4.049-7.208,8.315-7.323c4.071-0.11,7.766,2.858,8.529,6.854
	C26.425,53.097,26.425,53.097,27.411,53.097z M18.889,39.53c0-0.422,0.007-0.843-0.001-1.265c-0.015-0.763-0.451-1.242-1.1-1.223
	c-0.625,0.019-1.028,0.481-1.037,1.218c-0.01,0.82,0.032,1.644-0.015,2.462c-0.029,0.504,0.12,0.621,0.615,0.612
	c1.539-0.029,1.539-0.007,1.539-1.538C18.889,39.708,18.889,39.619,18.889,39.53z M13.536,68.112
	c0.016-0.58-0.444-1.074-1.023-1.099c-0.607-0.025-1.117,0.466-1.115,1.074c0.001,0.58,0.475,1.058,1.057,1.065
	C13.033,69.16,13.52,68.692,13.536,68.112z M23.16,67.012c-0.579,0.006-1.056,0.484-1.059,1.064s0.467,1.064,1.046,1.076
	c0.605,0.013,1.108-0.492,1.094-1.098C24.226,67.476,23.74,67.006,23.16,67.012z"/>
</svg>
