<?xml version="1.0" encoding="utf-8"?>
<!-- Generator: Adobe Illustrator 16.0.0, SVG Export Plug-In . SVG Version: 6.00 Build 0)  -->
<!DOCTYPE svg PUBLIC "-//W3C//DTD SVG 1.1//EN" "http://www.w3.org/Graphics/SVG/1.1/DTD/svg11.dtd">
<svg version="1.1" id="Layer_1" xmlns="http://www.w3.org/2000/svg" xmlns:xlink="http://www.w3.org/1999/xlink" x="0px" y="0px"
	 width="75px" height="75px" viewBox="0 0 75 75" enable-background="new 0 0 75 75" xml:space="preserve">
<g>
	<path fill="#23A552" d="M38.848,2.55c0.416,0.236,0.893,0.187,1.34,0.265C47.523,4.09,53.09,7.87,56.383,14.613
		c3.122,6.391,3.37,13.041,1.164,19.779c-0.652,1.991-1.679,3.806-2.876,5.531c-5.864,8.449-11.713,16.91-17.566,25.366
		c-0.063,0.091-0.136,0.174-0.227,0.289c-2.008-2.898-4.002-5.778-5.996-8.657c-3.975-5.741-7.938-11.491-11.927-17.224
		c-2.631-3.781-3.904-8.001-4.099-12.559c-0.221-5.145,0.861-9.992,3.553-14.426c2.059-3.393,4.932-5.911,8.431-7.733
		c2.393-1.247,4.949-1.971,7.624-2.293c0.12-0.015,0.279,0.044,0.336-0.136C36.149,2.55,37.499,2.55,38.848,2.55z M37.094,16.365
		c-4.422-0.001-8.071,3.646-8.067,8.063c0.004,4.42,3.648,8.064,8.066,8.065c4.417,0,8.062-3.643,8.067-8.064
		C45.165,20.014,41.518,16.366,37.094,16.365z"/>
	<path fill="#23A552" d="M2.55,60.979c0.35-0.229,0.329-0.658,0.521-0.978c1.003-1.666,2.541-2.706,4.194-3.592
		c3.356-1.796,6.984-2.791,10.694-3.515c1.607-0.313,3.232-0.537,4.851-0.789c0.879-0.135,1.487,0.236,1.593,0.942
		c0.105,0.705-0.361,1.218-1.264,1.332c-4.129,0.53-8.189,1.353-12.095,2.827c-1.704,0.645-3.352,1.408-4.782,2.566
		c-1.915,1.554-1.85,2.806,0.223,4.164c2.324,1.523,4.949,2.301,7.606,2.965c5.843,1.467,11.801,2.06,17.806,2.318
		c5.152,0.221,10.298,0.133,15.432-0.305c5.69-0.486,11.332-1.282,16.745-3.223c1.586-0.567,3.139-1.223,4.412-2.375
		c1.063-0.961,1.113-1.851,0.132-2.895c-1.179-1.254-2.675-2.031-4.228-2.699c-4.01-1.723-8.229-2.648-12.535-3.226
		c-0.289-0.039-0.578-0.08-0.867-0.124c-0.842-0.128-1.303-0.634-1.205-1.318c0.099-0.69,0.682-1.072,1.517-0.964
		c2.294,0.3,4.577,0.662,6.829,1.197c3.324,0.792,6.575,1.79,9.545,3.541c1.749,1.03,3.223,2.315,3.965,4.278
		c0,0.494,0,0.99,0,1.483c-0.359,0.407-0.445,0.956-0.779,1.386c-1.182,1.52-2.782,2.446-4.481,3.229
		c-3.469,1.602-7.157,2.438-10.897,3.075c-4.099,0.696-8.233,1.061-12.388,1.227c-0.155,0.007-0.366-0.11-0.467,0.13
		c-3.778,0-7.556,0-11.334,0c-0.035-0.15-0.156-0.132-0.264-0.136c-2.424-0.096-4.841-0.272-7.254-0.532
		c-4.826-0.521-9.606-1.291-14.166-3.017c-2.855-1.08-5.667-2.308-7.058-5.356C2.55,62.059,2.55,61.518,2.55,60.979z"/>
</g>
</svg>
