<?xml version="1.0" encoding="utf-8"?>
<!-- Generator: Adobe Illustrator 16.0.0, SVG Export Plug-In . SVG Version: 6.00 Build 0)  -->
<!DOCTYPE svg PUBLIC "-//W3C//DTD SVG 1.1//EN" "http://www.w3.org/Graphics/SVG/1.1/DTD/svg11.dtd">
<svg version="1.1" id="Layer_1" xmlns="http://www.w3.org/2000/svg" xmlns:xlink="http://www.w3.org/1999/xlink" x="0px" y="0px"
	 width="75px" height="75px" viewBox="0 0 75 75" enable-background="new 0 0 75 75" xml:space="preserve">
<g>
	<path fill="#FFFFFF" d="M2.234,28.285c0.336-0.48,0.246-1.093,0.518-1.605c0.194-0.365,0.349-0.752,0.624-1.063
		c1.328-1.503,2.684-2.989,4.309-4.177c2.265-1.656,4.398-1.658,6.64,0.149c2.309,1.861,4.027,4.231,5.165,6.978
		c0.876,2.117,0.379,4.012-1.155,5.661c-0.612,0.658-1.228,1.313-1.877,1.934c-0.763,0.729-0.951,1.583-0.722,2.583
		c0.289,1.26,0.912,2.371,1.65,3.39c3.866,5.34,8.471,9.955,13.817,13.813c1.094,0.79,2.276,1.469,3.658,1.7
		c0.896,0.149,1.626-0.08,2.261-0.715c0.635-0.637,1.282-1.26,1.935-1.879c1.868-1.775,3.979-2.086,6.283-0.966
		c2.576,1.253,4.893,2.879,6.61,5.2c1.651,2.234,1.526,4.387-0.205,6.582c-1.117,1.417-2.417,2.661-3.746,3.869
		c-1.36,1.238-3.063,1.414-4.79,1.328c-4.232-0.205-8.076-1.739-11.715-3.758c-10.17-5.64-18.188-13.558-24.308-23.406
		c-2.145-3.449-3.79-7.139-4.619-11.151c-0.089-0.433-0.029-0.909-0.333-1.288C2.234,30.406,2.234,29.346,2.234,28.285z"/>
	<path fill="#FFFFFF" d="M56.379,64.173c0.357-1.733,0.215-3.297-0.408-4.802c-0.179-0.432,0.197-0.465,0.387-0.592
		c2.569-1.723,4.787-3.812,6.646-6.282c2.795-3.716,4.493-7.884,5.167-12.479c0.06-0.406-0.153-0.518-0.418-0.674
		c-1.646-0.966-3.284-1.939-4.944-2.921c0.101-0.223,0.309-0.274,0.469-0.37c1.502-0.892,3.005-1.782,4.517-2.66
		c0.287-0.167,0.419-0.315,0.36-0.697c-1-6.688-4.038-12.272-9.137-16.698c-3.971-3.447-8.595-5.52-13.811-6.266
		c-0.398-0.057-0.574,0.068-0.756,0.38c-0.957,1.646-1.932,3.282-2.96,5.026c-0.826-1.4-1.601-2.711-2.374-4.022
		c-0.918-1.555-0.914-1.538-2.715-1.167c-7.11,1.466-12.754,5.173-16.959,11.077c-0.257,0.361-0.384,0.417-0.681,0.046
		c-0.783-0.974-1.698-1.818-2.727-2.527c-0.293-0.202-0.323-0.333-0.107-0.625c4.706-6.35,10.857-10.583,18.584-12.278
		c9.878-2.166,18.903-0.094,26.792,6.24c6.564,5.27,10.408,12.189,11.463,20.566c1,7.93-0.819,15.221-5.322,21.813
		C64.607,58.417,60.943,61.686,56.379,64.173z"/>
	<path fill="#FFFFFF" d="M33.628,43.212c-1.844,0-3.688-0.012-5.531,0.011c-0.407,0.004-0.526-0.105-0.59-0.521
		c-0.445-2.896,0.49-5.24,2.698-7.131c1.036-0.887,2.18-1.619,3.26-2.441c0.311-0.236,0.622-0.479,0.892-0.759
		c0.627-0.648,0.751-1.334,0.405-2.006c-0.308-0.597-1.102-0.973-1.876-0.898c-0.954,0.092-1.608,0.651-2.111,1.4
		c-0.235,0.351-0.402,0.396-0.749,0.146c-0.764-0.552-1.548-1.081-2.349-1.578c-0.348-0.216-0.326-0.39-0.149-0.708
		c2.013-3.628,7.468-4.475,10.45-1.612c1.862,1.788,1.956,5.023,0.213,7.185c-0.748,0.928-1.69,1.624-2.659,2.29
		c-0.777,0.534-1.568,1.049-2.338,1.592c-0.222,0.157-0.411,0.369-0.587,0.582c-0.158,0.188-0.37,0.42-0.238,0.668
		c0.102,0.19,0.379,0.082,0.576,0.082c2.051,0.006,4.102,0.019,6.153-0.007c0.457-0.005,0.656,0.069,0.629,0.589
		c-0.047,0.85-0.037,1.704-0.002,2.557c0.019,0.447-0.105,0.578-0.564,0.572C37.315,43.195,35.472,43.212,33.628,43.212z"/>
	<path fill="#FFFFFF" d="M53.518,30.585c0,1.406,0.019,2.812-0.012,4.217c-0.01,0.462,0.085,0.632,0.594,0.626
		c1.498-0.019,1.5,0.005,1.5,1.484c0,0.53-0.023,1.062,0.008,1.589c0.021,0.376-0.123,0.462-0.474,0.463
		c-0.521,0.001-1.255-0.243-1.512,0.104c-0.269,0.365-0.099,1.058-0.104,1.605c-0.009,0.715-0.014,1.43,0.004,2.145
		c0.006,0.299-0.092,0.402-0.396,0.398c-1.151-0.014-2.306-0.019-3.456,0.002c-0.346,0.006-0.423-0.119-0.418-0.438
		c0.018-1.037-0.043-2.077,0.023-3.11c0.043-0.649-0.193-0.739-0.768-0.731c-2.119,0.035-4.24,0-6.359,0.024
		c-0.477,0.005-0.633-0.065-0.67-0.614c-0.099-1.37,0.28-2.509,1.049-3.657c1.869-2.789,3.623-5.655,5.402-8.502
		c0.233-0.375,0.469-0.54,0.926-0.528c1.336,0.035,2.674,0.035,4.011,0c0.499-0.013,0.679,0.093,0.663,0.635
		C53.488,27.727,53.518,29.156,53.518,30.585z M45.863,35.418c0.783,0,1.428,0,2.07,0c1.328,0,1.328,0,1.328-1.32
		c0-1.315,0-2.631,0-3.947C48.245,31.974,46.952,33.562,45.863,35.418z"/>
</g>
</svg>
