<?xml version="1.0" encoding="utf-8"?>
<!-- Generator: Adobe Illustrator 16.0.0, SVG Export Plug-In . SVG Version: 6.00 Build 0)  -->
<!DOCTYPE svg PUBLIC "-//W3C//DTD SVG 1.1//EN" "http://www.w3.org/Graphics/SVG/1.1/DTD/svg11.dtd">
<svg version="1.1" id="Layer_1" xmlns="http://www.w3.org/2000/svg" xmlns:xlink="http://www.w3.org/1999/xlink" x="0px" y="0px"
	 width="75px" height="75px" viewBox="0 0 75 75" enable-background="new 0 0 75 75" xml:space="preserve">
<g>
	<path fill-rule="evenodd" clip-rule="evenodd" fill="#175E8E" d="M46.631,3.848c0.353,0.479,0.292,0.921-0.002,1.434
		c-0.668,1.166-1.28,2.364-1.903,3.555c-0.735,1.407-0.566,2.546,0.538,3.675c0.927,0.948,1.863,1.887,2.793,2.833
		c0.846,0.862,1.883,1.351,3.077,1.33c6.823-0.12,13.762,4.471,16.004,12.615c3.396,12.337-0.328,26.33-9.598,34.883
		c-4.55,4.197-9.873,6.783-16.051,7.422c-6.721,0.694-12.922-0.893-18.585-4.567c-5.163-3.352-10.317-6.717-15.475-10.076
		c-0.111-0.072-0.224-0.143-0.328-0.224c-0.332-0.257-0.395-0.589-0.182-0.935c0.232-0.376,0.578-0.473,0.966-0.229
		c0.69,0.435,1.373,0.883,2.057,1.328c4.713,3.071,9.403,6.18,14.146,9.204c4.974,3.171,10.448,4.581,16.328,4.151
		c7.059-0.515,12.979-3.47,17.715-8.725c6.479-7.188,9.369-15.648,8.763-25.292c-0.184-2.918-0.719-5.797-1.812-8.514
		c-2.333-5.8-6.669-8.986-12.9-9.57c-0.682-0.063-1.376-0.036-2.048-0.15c-1.184-0.2-2.206-0.759-3.054-1.612
		c-1.028-1.034-2.066-2.061-3.062-3.127c-1.176-1.26-1.529-2.775-0.866-4.352c0.739-1.757,1.696-3.42,2.682-5.058
		C46.101,3.848,46.366,3.848,46.631,3.848z"/>
	<path fill-rule="evenodd" clip-rule="evenodd" fill="#175E8E" d="M39.867,3.848c0.608,0.479,0.649,0.698,0.22,1.362
		c-0.876,1.352-1.771,2.69-2.635,4.049c-0.951,1.494-0.802,3.15,0.411,4.439c5.679,6.028,6.694,13.013,3.672,20.475
		c-3.314,8.184-9.595,12.858-18.363,14.129c-0.153,0.021-0.306,0.041-0.458,0.068c-1.685,0.304-3.117-0.018-4.255-1.444
		c-0.72-0.902-1.601-0.9-2.512-0.203c-0.368,0.281-0.749,0.554-1.083,0.872c-1.541,1.466-3.574,0.702-4.884-0.104
		c-0.344-0.211-0.429-0.56-0.209-0.924c0.23-0.382,0.562-0.471,0.963-0.27c0.118,0.06,0.234,0.123,0.351,0.186
		c1.173,0.63,2.25,0.725,3.308-0.321c0.714-0.706,1.532-1.339,2.648-1.347c0.889-0.006,1.64,0.287,2.274,0.897
		c0.302,0.291,0.596,0.591,0.892,0.889c0.332,0.334,0.731,0.464,1.2,0.444C30.728,46.65,38.769,40.24,41.09,31.2
		c1.593-6.203,0.316-11.756-4.169-16.462c-1.728-1.813-1.959-4.208-0.603-6.314c0.988-1.537,2.012-3.051,3.019-4.575
		C39.513,3.848,39.69,3.848,39.867,3.848z"/>
	<path fill-rule="evenodd" clip-rule="evenodd" fill="#175E8E" d="M43.183,3.848c0.624,0.503,0.653,0.701,0.188,1.418
		c-0.792,1.22-1.581,2.443-2.39,3.652c-0.423,0.633-0.754,1.294-0.832,2.061c-0.049,0.48-0.316,0.735-0.791,0.682
		c-0.488-0.054-0.646-0.394-0.608-0.856c0.059-0.691,0.227-1.36,0.6-1.94c1.084-1.683,2.199-3.346,3.303-5.017
		C42.829,3.848,43.006,3.848,43.183,3.848z"/>
	<path fill-rule="evenodd" clip-rule="evenodd" fill="#175E8E" d="M22.212,56.82c0.025-0.637-0.124-1.578,0.068-2.488
		c0.434-2.063,1.728-3.328,3.78-3.788c3.29-0.737,6.347-2.022,9.072-4.007c6.897-5.022,10.508-11.801,10.694-20.356
		c0.063-2.941,2.061-5.216,4.803-5.343c2.514-0.116,4.857,0.488,6.998,1.826c2.837,1.772,4.604,4.333,5.44,7.54
		c2.927,11.229,0.599,21.237-7.261,29.789c-5.375,5.847-12.171,8.231-20.08,7.414c-4.252-0.438-8.04-2.086-11.535-4.465
		c-1.285-0.874-1.937-2.146-1.977-3.707C22.198,58.526,22.212,57.818,22.212,56.82z M23.646,57.104c0.003,0,0.007,0,0.011,0
		c0,0.729-0.019,1.458,0.004,2.187c0.033,1.065,0.521,1.898,1.383,2.509c0.396,0.279,0.811,0.532,1.225,0.784
		c6.252,3.795,12.872,4.707,19.795,2.251c6.233-2.213,10.455-6.721,13.426-12.487c0.861-1.67,0.237-3.59-1.342-4.646
		c-1.173-0.784-2.347-1.569-3.503-2.378c-2.538-1.776-5.171-3.361-8.17-4.256c-1.995-0.596-3.759-0.057-5.073,1.579
		c-1.673,2.081-3.62,3.863-5.833,5.356c-2.848,1.922-5.968,3.192-9.309,3.963c-1.665,0.385-2.583,1.583-2.613,3.281
		C23.637,55.867,23.646,56.485,23.646,57.104z M60.999,49.092c2.354-6.236,2.474-13.405,0.365-19.579
		c-1.462-4.279-5.345-7.064-9.85-7.277c-2.462-0.117-4.354,1.62-4.287,4.16c0.065,2.48-0.374,4.919-1.095,7.303
		c-0.615,2.032-1.478,3.952-2.581,5.871c0.846-0.146,1.607-0.252,2.378-0.09c2.026,0.427,3.883,1.277,5.692,2.251
		c2.299,1.238,4.326,2.892,6.526,4.278C59.353,46.769,60.415,47.61,60.999,49.092z"/>
	<path fill-rule="evenodd" clip-rule="evenodd" fill="#175E8E" d="M25.526,16.136c6.97,0.123,12.366,5.635,12.264,12.528
		c-0.1,6.775-5.724,12.258-12.465,12.154c-6.788-0.104-12.332-5.741-12.218-12.421C13.225,21.513,18.791,16.017,25.526,16.136z
		 M14.535,28.395c-0.003,6.057,4.853,10.983,10.837,10.994c6.107,0.012,11.015-4.868,11.02-10.956
		c0.005-5.981-4.915-10.883-10.946-10.906C19.502,17.505,14.538,22.449,14.535,28.395z"/>
	<path fill-rule="evenodd" clip-rule="evenodd" fill="#175E8E" d="M17.732,56.078c0.016,0.641-0.499,0.928-1.115,0.613
		c-1.449-0.741-2.885-1.507-4.327-2.263c-0.624-0.326-1.249-0.65-1.871-0.979c-0.399-0.211-0.626-0.514-0.403-0.968
		c0.235-0.477,0.623-0.505,1.058-0.277c2.065,1.081,4.13,2.164,6.194,3.246C17.535,55.591,17.747,55.773,17.732,56.078z"/>
	<path fill-rule="evenodd" clip-rule="evenodd" fill="#175E8E" d="M47.751,48.519c1.389-0.001,2.531,1.123,2.549,2.511
		c0.019,1.412-1.126,2.572-2.547,2.581c-1.427,0.009-2.576-1.126-2.577-2.544S46.314,48.521,47.751,48.519z M48.881,51.034
		c-0.017-0.613-0.543-1.122-1.158-1.117c-0.641,0.005-1.149,0.555-1.118,1.21c0.028,0.621,0.566,1.117,1.177,1.085
		C48.4,52.18,48.896,51.648,48.881,51.034z"/>
	<path fill-rule="evenodd" clip-rule="evenodd" fill="#175E8E" d="M43.401,62.267c-1.376-0.009-2.472-1.104-2.475-2.475
		c-0.003-1.391,1.132-2.508,2.531-2.493c1.36,0.014,2.466,1.152,2.438,2.512C45.866,61.196,44.771,62.275,43.401,62.267z
		 M44.493,59.772c0.005-0.595-0.511-1.102-1.104-1.088c-0.583,0.015-1.037,0.484-1.038,1.072c-0.001,0.604,0.485,1.091,1.097,1.095
		C43.99,60.855,44.49,60.34,44.493,59.772z"/>
	<path fill-rule="evenodd" clip-rule="evenodd" fill="#175E8E" d="M35.249,56.794c-0.011,1.362-1.09,2.415-2.455,2.396
		c-1.364-0.019-2.406-1.101-2.381-2.471c0.025-1.358,1.109-2.389,2.488-2.363C34.221,54.38,35.26,55.458,35.249,56.794z
		 M33.85,56.785c0.009-0.537-0.451-1.017-0.993-1.034c-0.53-0.017-1.025,0.442-1.052,0.978c-0.028,0.551,0.474,1.072,1.028,1.069
		C33.369,57.794,33.841,57.324,33.85,56.785z"/>
	<path fill-rule="evenodd" clip-rule="evenodd" fill="#175E8E" d="M61.492,38.82c0.009,1.841-0.202,3.658-0.54,5.464
		c-0.095,0.508-0.287,0.924-0.894,0.821c-0.628-0.106-0.64-0.596-0.54-1.082c0.546-2.662,0.659-5.344,0.374-8.044
		c-0.213-2.003-0.61-3.97-1.323-5.856c-1.155-3.056-4.094-5.064-7.326-5.052c-0.833,0.003-1.159,0.316-1.156,1.164
		c0.011,3.209-0.523,6.324-1.577,9.355c-0.171,0.489-0.404,0.892-0.986,0.69c-0.568-0.197-0.547-0.647-0.372-1.149
		c1.009-2.902,1.508-5.889,1.495-8.966c-0.007-1.616,1.036-2.57,2.66-2.519c4.295,0.136,7.58,2.645,8.887,6.766
		C61.062,33.149,61.48,35.953,61.492,38.82z"/>
	<path fill-rule="evenodd" clip-rule="evenodd" fill="#175E8E" d="M25.426,34.463c-0.486,0-0.972,0-1.458,0
		c-0.595,0.001-0.902-0.29-0.902-0.891c0-0.751-0.021-1.503,0.008-2.253c0.015-0.384-0.115-0.492-0.487-0.479
		c-0.728,0.026-1.458,0.019-2.187,0.004c-0.713-0.014-0.935-0.248-0.941-0.974c-0.007-0.95-0.009-1.9,0-2.85
		c0.007-0.687,0.231-0.914,0.911-0.923c0.751-0.011,1.503-0.02,2.253,0.004c0.356,0.011,0.458-0.118,0.448-0.458
		c-0.021-0.729-0.014-1.458-0.004-2.187c0.01-0.747,0.216-0.971,0.934-0.982c0.972-0.015,1.944-0.015,2.917,0
		c0.705,0.011,0.898,0.217,0.907,0.924c0.009,0.751,0.019,1.503-0.005,2.253c-0.011,0.355,0.116,0.458,0.458,0.448
		c0.751-0.021,1.502,0.007,2.253-0.01c0.603-0.014,0.915,0.245,0.915,0.856c0,1.016-0.001,2.033-0.001,3.049
		c0,0.577-0.303,0.848-0.865,0.851c-0.729,0.003-1.46,0.031-2.187-0.009c-0.484-0.027-0.597,0.157-0.575,0.604
		c0.034,0.706-0.003,1.414,0.012,2.121c0.013,0.614-0.286,0.896-0.879,0.9C26.442,34.466,25.934,34.463,25.426,34.463z
		 M28.41,29.436c0.066,0,0.132,0,0.199,0c1.5,0,1.487,0,1.439-1.505c-0.011-0.347-0.108-0.458-0.455-0.449
		c-0.772,0.022-1.546-0.001-2.319,0.009c-0.585,0.008-0.852-0.272-0.844-0.848c0.007-0.441,0.001-0.883,0.001-1.326
		c0-1.49,0-1.477-1.508-1.442c-0.348,0.008-0.456,0.098-0.444,0.447c0.024,0.772,0.001,1.546,0.009,2.32
		c0.005,0.578-0.268,0.856-0.847,0.848c-0.441-0.007-0.883-0.001-1.325-0.001c-1.487,0-1.474,0-1.436,1.511
		c0.009,0.345,0.095,0.456,0.446,0.444c0.772-0.026,1.546-0.003,2.319-0.01c0.582-0.005,0.846,0.282,0.841,0.854
		c-0.006,0.751,0.027,1.504-0.012,2.253c-0.023,0.431,0.132,0.5,0.521,0.5c1.435,0,1.435,0.015,1.435-1.444c0-0.066,0-0.132,0-0.199
		C26.417,29.279,26.316,29.425,28.41,29.436z"/>
</g>
</svg>
