<?xml version="1.0" encoding="utf-8"?>
<!-- Generator: Adobe Illustrator 16.0.0, SVG Export Plug-In . SVG Version: 6.00 Build 0)  -->
<!DOCTYPE svg PUBLIC "-//W3C//DTD SVG 1.1//EN" "http://www.w3.org/Graphics/SVG/1.1/DTD/svg11.dtd">
<svg version="1.1" id="Layer_1" xmlns="http://www.w3.org/2000/svg" xmlns:xlink="http://www.w3.org/1999/xlink" x="0px" y="0px"
	 width="75px" height="75px" viewBox="0 0 75 75" enable-background="new 0 0 75 75" xml:space="preserve">
<g>
	<path fill-rule="evenodd" clip-rule="evenodd" fill="#175E8E" d="M2.234,28.285c0.336-0.48,0.246-1.093,0.518-1.605
		c0.194-0.365,0.349-0.752,0.624-1.063c1.328-1.503,2.684-2.989,4.309-4.177c2.265-1.656,4.398-1.658,6.64,0.149
		c2.309,1.861,4.027,4.231,5.165,6.978c0.876,2.117,0.379,4.012-1.155,5.661c-0.612,0.658-1.228,1.313-1.877,1.934
		c-0.763,0.729-0.951,1.583-0.722,2.583c0.289,1.26,0.912,2.371,1.65,3.39c3.866,5.339,8.471,9.955,13.817,13.813
		c1.094,0.79,2.276,1.469,3.658,1.701c0.896,0.149,1.626-0.08,2.261-0.716c0.635-0.636,1.283-1.259,1.934-1.878
		c1.869-1.775,3.98-2.086,6.284-0.966c2.576,1.253,4.893,2.879,6.61,5.2c1.652,2.234,1.526,4.387-0.205,6.582
		c-1.117,1.417-2.417,2.661-3.746,3.869c-1.361,1.238-3.063,1.414-4.79,1.329c-4.233-0.206-8.076-1.74-11.715-3.758
		c-10.17-5.64-18.188-13.558-24.308-23.406c-2.145-3.45-3.79-7.14-4.619-11.152c-0.089-0.433-0.029-0.909-0.333-1.288
		C2.234,30.406,2.234,29.346,2.234,28.285z"/>
	<path fill-rule="evenodd" clip-rule="evenodd" fill="#175E8E" d="M56.379,64.173c0.358-1.734,0.215-3.297-0.408-4.802
		c-0.179-0.432,0.197-0.465,0.387-0.592c2.569-1.722,4.787-3.811,6.646-6.282c2.795-3.716,4.493-7.884,5.167-12.48
		c0.06-0.405-0.154-0.517-0.418-0.673c-1.645-0.966-3.284-1.939-4.944-2.921c0.1-0.223,0.308-0.274,0.468-0.37
		c1.502-0.892,3.005-1.782,4.517-2.66c0.287-0.167,0.419-0.315,0.361-0.697c-1-6.688-4.039-12.272-9.137-16.698
		c-3.971-3.447-8.595-5.52-13.811-6.266c-0.398-0.057-0.574,0.068-0.756,0.38c-0.957,1.646-1.931,3.282-2.96,5.026
		c-0.826-1.4-1.6-2.711-2.374-4.022c-0.918-1.555-0.914-1.538-2.715-1.167c-7.11,1.466-12.754,5.173-16.959,11.077
		c-0.257,0.361-0.384,0.417-0.681,0.046c-0.783-0.974-1.698-1.818-2.727-2.527c-0.293-0.202-0.323-0.333-0.107-0.625
		c4.706-6.35,10.857-10.583,18.584-12.278c9.878-2.166,18.903-0.094,26.793,6.24c6.564,5.27,10.408,12.189,11.463,20.566
		c0.999,7.93-0.82,15.221-5.323,21.814C64.608,58.417,60.943,61.685,56.379,64.173z"/>
	<path fill-rule="evenodd" clip-rule="evenodd" fill="#175E8E" d="M33.628,43.212c-1.844,0-3.688-0.012-5.531,0.01
		c-0.407,0.005-0.526-0.105-0.59-0.52c-0.445-2.896,0.49-5.24,2.698-7.131c1.036-0.887,2.18-1.619,3.26-2.441
		c0.311-0.236,0.622-0.479,0.892-0.759c0.627-0.648,0.751-1.334,0.405-2.006c-0.308-0.597-1.102-0.973-1.876-0.898
		c-0.954,0.092-1.608,0.651-2.111,1.4c-0.235,0.351-0.402,0.396-0.749,0.146c-0.764-0.552-1.548-1.081-2.349-1.578
		c-0.348-0.216-0.326-0.39-0.149-0.708c2.013-3.628,7.468-4.475,10.45-1.612c1.862,1.788,1.955,5.023,0.213,7.185
		c-0.747,0.928-1.69,1.624-2.659,2.29c-0.777,0.534-1.568,1.049-2.338,1.592c-0.222,0.157-0.411,0.369-0.587,0.581
		c-0.158,0.189-0.37,0.421-0.238,0.669c0.102,0.19,0.379,0.081,0.576,0.082c2.051,0.006,4.102,0.018,6.153-0.007
		c0.457-0.005,0.656,0.069,0.628,0.588c-0.046,0.85-0.037,1.705-0.002,2.557c0.019,0.447-0.105,0.579-0.564,0.572
		C37.315,43.196,35.472,43.212,33.628,43.212z"/>
	<path fill-rule="evenodd" clip-rule="evenodd" fill="#175E8E" d="M53.517,30.585c0,1.406,0.019,2.812-0.011,4.217
		c-0.01,0.462,0.085,0.632,0.593,0.626c1.499-0.019,1.5,0.005,1.5,1.484c0,0.53-0.023,1.062,0.008,1.589
		c0.021,0.376-0.122,0.462-0.473,0.463c-0.521,0.001-1.255-0.243-1.512,0.105c-0.268,0.364-0.098,1.057-0.104,1.605
		c-0.009,0.715-0.014,1.429,0.003,2.144c0.007,0.299-0.092,0.402-0.395,0.399c-1.151-0.014-2.305-0.019-3.456,0.002
		c-0.346,0.006-0.423-0.119-0.418-0.438c0.017-1.037-0.043-2.077,0.024-3.11c0.042-0.65-0.194-0.74-0.768-0.731
		c-2.119,0.034-4.24,0-6.359,0.024c-0.477,0.005-0.633-0.065-0.671-0.614c-0.098-1.37,0.281-2.509,1.05-3.657
		c1.869-2.789,3.622-5.655,5.401-8.502c0.234-0.375,0.47-0.54,0.927-0.528c1.336,0.035,2.674,0.035,4.01,0
		c0.499-0.013,0.679,0.093,0.663,0.635C53.488,27.727,53.517,29.156,53.517,30.585z M45.864,35.418c0.783,0,1.427,0,2.07,0
		c1.327,0,1.327,0,1.327-1.32c0-1.315,0-2.631,0-3.947C48.245,31.974,46.952,33.562,45.864,35.418z"/>
</g>
</svg>
