<?xml version="1.0" encoding="utf-8"?>
<!-- Generator: Adobe Illustrator 16.0.0, SVG Export Plug-In . SVG Version: 6.00 Build 0)  -->
<!DOCTYPE svg PUBLIC "-//W3C//DTD SVG 1.1//EN" "http://www.w3.org/Graphics/SVG/1.1/DTD/svg11.dtd">
<svg version="1.1" id="Layer_1" xmlns="http://www.w3.org/2000/svg" xmlns:xlink="http://www.w3.org/1999/xlink" x="0px" y="0px"
	 width="75px" height="75px" viewBox="0 0 75 75" enable-background="new 0 0 75 75" xml:space="preserve">
<g>
	<path fill-rule="evenodd" clip-rule="evenodd" fill="#175E8E" d="M39.698,3.512c4.94,0,9.881,0,14.821,0.001
		c1.12,0,1.473,0.345,1.475,1.443c0.004,1.971,0.005,3.942,0,5.914c-0.005,2.17-1.351,3.535-3.517,3.509
		c-0.567-0.007-0.823,0.061-0.925,0.727c-0.252,1.649-1.238,2.781-2.81,3.361c-0.322,0.118-0.451,0.274-0.504,0.614
		c-0.57,3.598-3.353,6.448-7.006,7.11c-0.751,0.137-0.385,0.613-0.465,0.96c-0.104,0.449,0.205,0.43,0.515,0.458
		c10.855,0.971,20.219,5.223,28.101,12.757c0.423,0.406,0.416,0.636-0.021,0.967c-0.39,0.298-0.656,0.951-1.082,0.929
		c-0.363-0.021-0.696-0.588-1.043-0.91C60.682,35.277,53,31.517,44.16,30.152c-0.962-0.149-1.934-0.235-2.896-0.371
		c-0.36-0.05-0.55,0-0.505,0.429c0.057,0.56-0.233,1.309,0.107,1.634c0.324,0.311,1.064,0.184,1.621,0.257
		c9.194,1.215,17.099,5.066,23.688,11.601c1.528,1.515,3.049,3.039,4.567,4.566c0.605,0.609,0.683,1.188,0.138,1.724
		c-3.052,2.998-5.905,6.211-9.389,8.75c-5.865,4.275-12.387,6.903-19.618,7.604c-12.825,1.245-23.857-2.705-33.089-11.684
		c-1.527-1.486-3.019-3.006-4.521-4.518c-0.607-0.61-0.688-1.191-0.146-1.722c2.88-2.819,5.558-5.854,8.784-8.306
		c5.973-4.54,12.677-7.249,20.14-8.073c1.669-0.185,3.341-0.285,5.02-0.229c0.39,0.012,0.541-0.048,0.542-0.497
		c0.003-1.704,0.022-1.723-1.678-1.687c-11.53,0.246-21.468,4.351-29.785,12.344c-0.372,0.357-0.541,0.34-0.882-0.011
		c-1.124-1.155-1.134-1.138,0.06-2.245c7.009-6.496,15.25-10.424,24.693-11.827c2.333-0.346,4.685-0.493,7.046-0.442
		c0.238,0.006,0.611,0.134,0.525-0.343c-0.061-0.332,0.263-0.781-0.441-0.911c-3.701-0.678-6.409-3.457-7.033-7.16
		c-0.053-0.317-0.189-0.455-0.477-0.561c-1.708-0.635-2.673-1.885-2.891-3.679c-0.048-0.397-0.205-0.421-0.503-0.405
		c-0.851,0.046-1.678-0.036-2.405-0.539c-0.961-0.666-1.468-1.581-1.472-2.754c-0.007-2.063-0.004-4.125-0.001-6.187
		c0.001-1.027,0.365-1.397,1.383-1.397C29.727,3.511,34.712,3.512,39.698,3.512z M36.521,64.447
		c6.372-0.035,11.52-1.146,16.478-3.265c6.126-2.621,10.868-7.02,15.371-11.746c0.204-0.215,0.136-0.327-0.032-0.494
		c-2.9-2.861-5.658-5.875-9.057-8.192c-5.472-3.734-11.495-5.938-18.087-6.588c-0.136-0.014-0.307-0.13-0.419,0.071
		c-0.242,0.435,0.079,1.241,0.553,1.374c6.916,1.943,11.402,9.021,10.126,15.977c-1.398,7.622-7.96,12.557-15.671,11.783
		c-7.876-0.79-13.718-8.477-12.389-16.304c1.221-7.192,7.286-12.184,14.566-11.994c0.309,0.008,0.681,0.173,0.647-0.438
		c-0.027-0.457-0.059-0.66-0.612-0.664c-8.313-0.06-15.864,2.295-22.676,7.061c-3.237,2.264-5.866,5.184-8.667,7.92
		c-0.289,0.282-0.095,0.409,0.085,0.589c1.316,1.312,2.612,2.644,3.947,3.936C18.16,60.707,27.138,64.273,36.521,64.447z
		 M38.588,39.52c0-0.611-0.017-1.224,0.007-1.834c0.013-0.333-0.116-0.427-0.428-0.437c-0.978-0.036-1.949,0.003-2.908,0.2
		c-6.403,1.316-10.383,6.895-9.596,13.449c0.765,6.371,7.261,11.197,13.578,10.088c5.781-1.016,9.723-5.365,10.139-11.192
		c0.371-5.198-3.108-10.316-8.081-11.93c-0.518-0.168-0.55-0.001-0.541,0.431c0.021,1.154,0.023,2.311-0.004,3.466
		c-0.008,0.406,0.1,0.624,0.478,0.836c3.466,1.951,4.83,6.202,3.177,9.808c-1.613,3.516-5.636,5.248-9.333,4.021
		c-3.677-1.22-5.858-5.052-5.029-8.833c0.257-1.174,0.914-1.469,1.971-0.884c0.321,0.178,0.652,0.312,1.026,0.322
		c0.839,0.021,1.502-0.315,1.947-1.021c0.462-0.733,0.448-1.495,0.032-2.254c-0.615-1.123-0.301-1.777,0.966-2.018
		c0.715-0.136,1.44-0.213,2.162-0.11c0.377,0.054,0.461-0.056,0.445-0.407C38.57,40.653,38.588,40.085,38.588,39.52z M39.676,5.689
		c-4.51,0-9.02,0.01-13.53-0.013c-0.511-0.002-0.638,0.121-0.625,0.628c0.037,1.517,0.01,3.037,0.015,4.555
		c0.003,0.973,0.383,1.355,1.358,1.355c8.521,0.002,17.042,0.002,25.565,0c0.974,0,1.355-0.384,1.358-1.355
		c0.004-1.519-0.023-3.039,0.014-4.556c0.014-0.508-0.115-0.629-0.625-0.627C48.695,5.7,44.186,5.689,39.676,5.689z M40.765,44.919
		c0,0.947,0,1.776,0,2.606c0,1.731,0,1.716-1.72,1.692c-0.413-0.007-0.469-0.152-0.465-0.508c0.019-1.449-0.008-2.897,0.019-4.348
		c0.006-0.376-0.116-0.533-0.471-0.555c-0.245-0.015-0.49-0.088-0.74,0.024c0.322,1.581-0.053,2.978-1.192,4.108
		c-1.133,1.122-2.535,1.471-4.094,1.155c-0.148,2.428,1.57,4.72,3.985,5.367c2.47,0.66,5.078-0.508,6.237-2.795
		C43.491,49.365,42.895,46.62,40.765,44.919z M33.287,18.745c0.009,0.142,0.004,0.234,0.022,0.32
		c0.632,2.893,3.224,5.042,6.161,5.113c3.061,0.073,5.706-1.916,6.509-4.845c0.138-0.502,0.048-0.601-0.456-0.599
		c-3.513,0.02-7.023,0.011-10.536,0.011C34.427,18.745,33.865,18.745,33.287,18.745z M39.748,14.393
		c-3.125,0-6.25,0.009-9.376-0.009c-0.451-0.003-0.543,0.115-0.427,0.533c0.257,0.921,1.054,1.603,2.015,1.644
		c0.587,0.025,1.178,0.007,1.767,0.007c4.461,0,8.922,0.002,13.384-0.001c1.155,0,1.945-0.58,2.27-1.577
		c0.156-0.48,0.056-0.611-0.459-0.607C45.864,14.403,42.806,14.393,39.748,14.393z"/>
	<path fill-rule="evenodd" clip-rule="evenodd" fill="#175E8E" d="M38.902,70.953c-1.403,0.031-1.367,0.03-1.419-1.372
		c-0.023-0.635,0.118-0.803,0.788-0.819c11.365-0.274,21.188-4.32,29.421-12.167c0.513-0.49,0.765-0.479,1.227,0.02
		c0.923,0.997,0.948,0.968-0.061,1.913c-6.57,6.161-14.291,10.057-23.141,11.714C43.468,70.663,41.191,70.876,38.902,70.953z"/>
	<path fill-rule="evenodd" clip-rule="evenodd" fill="#175E8E" d="M23.426,18.744c0.928,0.001,1.857,0.015,2.786-0.007
		c0.327-0.008,0.406,0.092,0.418,0.415c0.067,1.768,0.077,1.768-1.71,1.768c-1.45,0-2.899-0.014-4.35,0.008
		c-0.384,0.006-0.482-0.102-0.487-0.485c-0.019-1.7-0.032-1.7,1.644-1.7C22.293,18.744,22.859,18.744,23.426,18.744z"/>
	<path fill-rule="evenodd" clip-rule="evenodd" fill="#175E8E" d="M56.058,18.744c0.929,0.001,1.857,0.013,2.786-0.007
		c0.319-0.006,0.41,0.078,0.424,0.41c0.07,1.773,0.082,1.773-1.706,1.773c-1.449,0-2.898-0.013-4.349,0.008
		c-0.376,0.005-0.487-0.089-0.493-0.48c-0.021-1.705-0.033-1.705,1.639-1.705C54.925,18.744,55.492,18.744,56.058,18.744z"/>
	<path fill-rule="evenodd" clip-rule="evenodd" fill="#175E8E" d="M30.625,23.868c-0.094,0.107-0.162,0.195-0.24,0.273
		c-1.259,1.261-2.524,2.52-3.777,3.788c-0.215,0.218-0.338,0.249-0.591,0.014c-1.309-1.213-1.318-1.203-0.069-2.453
		c0.941-0.941,1.892-1.874,2.819-2.831c0.256-0.264,0.425-0.328,0.688-0.016c0.275,0.327,0.602,0.611,0.903,0.916
		C30.448,23.652,30.528,23.755,30.625,23.868z"/>
	<path fill-rule="evenodd" clip-rule="evenodd" fill="#175E8E" d="M50.229,22.36c0.112,0.093,0.222,0.171,0.315,0.265
		c1.247,1.244,2.484,2.495,3.74,3.729c0.243,0.241,0.258,0.379,0.009,0.644c-1.199,1.265-1.191,1.275-2.407,0.058
		c-0.942-0.942-1.871-1.897-2.832-2.819c-0.296-0.285-0.338-0.459-0.004-0.734c0.329-0.271,0.61-0.601,0.915-0.903
		C50.046,22.523,50.13,22.45,50.229,22.36z"/>
</g>
</svg>
