<?xml version="1.0" encoding="utf-8"?>
<!-- Generator: Adobe Illustrator 16.0.0, SVG Export Plug-In . SVG Version: 6.00 Build 0)  -->
<!DOCTYPE svg PUBLIC "-//W3C//DTD SVG 1.1//EN" "http://www.w3.org/Graphics/SVG/1.1/DTD/svg11.dtd">
<svg version="1.1" id="Layer_1" xmlns="http://www.w3.org/2000/svg" xmlns:xlink="http://www.w3.org/1999/xlink" x="0px" y="0px"
	 width="75px" height="75px" viewBox="0 0 75 75" enable-background="new 0 0 75 75" xml:space="preserve">
<g>
	<path fill-rule="evenodd" clip-rule="evenodd" fill="#175E8E" d="M40.88,66.555c-0.08,0.901,0.089,1.722,0.112,2.548
		c0.026,0.944-0.319,1.318-1.258,1.32c-2.106,0.006-4.212,0.007-6.318,0c-0.899-0.004-1.278-0.396-1.194-1.289
		c0.667-7.079,0.209-14.153-0.093-21.228c-0.126-2.961-0.307-5.921-0.46-8.854c-0.171-0.11-0.253-0.005-0.345,0.063
		c-1.677,1.225-3.476,2.182-5.56,2.499c-0.29,0.044-0.464,0.163-0.536,0.47c-0.169,0.72-0.572,1.322-1.108,1.807
		c-0.389,0.352-0.27,0.505,0.077,0.779c1.663,1.309,2.881,2.929,3.308,5.044c1,4.959-2.341,10.162-7.375,11.359
		c-4.12,0.979-7.7-0.37-10.86-2.943c-3.123-2.542-4.751-5.996-5.518-9.867c-1.047-5.288-1.026-10.569,0.648-15.735
		c1.402-4.328,3.99-7.719,8.37-9.413c2.494-0.965,5.074-1.31,7.587-0.062c2.651,1.317,4.084,3.505,4.292,6.477
		c0.078,1.112-0.347,2.051-0.964,2.932c-0.48,0.684-1.069,1.273-1.7,1.898c0.702,0.323,1.354,0.611,1.913,1.065
		c0.282,0.23,0.555-0.003,0.797-0.112c1.969-0.89,3.454-2.375,4.813-3.997c1.317-1.57,2.452-3.243,2.706-5.356
		c0.172-1.426,0.269-2.859,0.296-4.294c0.086-4.573-0.092-9.139-0.379-13.702C32.008,6.056,32.14,5.9,34.035,5.87
		c1.579-0.025,3.158-0.045,4.737-0.055c0.902-0.006,1.278,0.367,1.225,1.263c-0.156,2.627-0.344,5.254-0.268,7.888
		c0.058,1.986,0.188,3.963,0.688,5.901c0.332,1.284,1.004,2.309,2.12,3.035c2.316,1.503,4.916,2.166,7.606,2.558
		c0.109,0.016,0.278,0.02,0.334-0.044c0.507-0.577,1.035-1.123,1.68-1.552c0.182-0.12,0.012-0.242-0.087-0.337
		c-0.239-0.234-0.483-0.463-0.719-0.701c-2.188-2.212-2.628-4.359-0.875-7.552c1.588-2.894,4.853-4.254,8.297-3.654
		c5.349,0.933,8.671,4.263,10.636,9.107c1.651,4.072,1.917,8.358,1.658,12.692c-0.204,3.444-0.837,6.813-2.668,9.782
		c-0.759,1.23-0.811,2.181-0.337,3.548c3.591,10.398-3.525,21.411-14.495,22.562c-4.424,0.463-8.423-0.675-12.021-3.269
		C41.339,66.894,41.136,66.742,40.88,66.555z M34.439,54.948c0.143,4.298,0.232,8.596-0.07,12.891
		c-0.033,0.479,0.088,0.599,0.557,0.586c1.169-0.032,2.341-0.022,3.51-0.004c0.356,0.005,0.495-0.059,0.461-0.464
		c-0.082-1-0.12-2.003-0.147-3.006c-0.01-0.379-0.135-0.669-0.373-0.964c-2.136-2.647-3.386-5.665-3.723-9.055
		c0-0.407,0-0.815,0-1.301C34.556,54.119,34.211,54.488,34.439,54.948z M66.287,43.896c0.084-0.136,0.132-0.205,0.173-0.279
		c0.177-0.312,0.361-0.617,0.524-0.937c1.333-2.623,1.901-5.442,2.073-8.35c0.24-4.042,0.016-8.045-1.516-11.849
		c-1.66-4.124-4.435-7.045-9.011-7.853c-3.132-0.553-5.795,0.877-6.777,3.593c-0.529,1.461-0.376,2.749,0.746,3.895
		c0.672,0.685,1.388,1.317,2.097,1.959c0.889,0.806,0.765,1.555-0.347,1.993c-0.962,0.379-1.77,0.945-2.317,1.834
		c-0.281,0.456-0.657,0.656-1.195,0.608c-3.151-0.28-6.163-1.032-8.912-2.654c-1.777-1.048-2.91-2.582-3.393-4.593
		c-0.307-1.281-0.499-2.578-0.605-3.891c-0.245-3.015-0.11-6.025,0.081-9.035c0.021-0.335,0.023-0.533-0.412-0.514
		c-0.955,0.042-1.913,0.047-2.87,0.04C34.233,7.86,34.15,8.011,34.18,8.381c0.07,0.882,0.101,1.767,0.139,2.651
		c0.2,4.566,0.354,9.132,0.051,13.701c-0.143,2.158-0.664,4.184-1.907,5.997c-1.046,1.527-2.205,2.952-3.599,4.171
		c-1.264,1.105-2.586,2.131-4.262,2.55c-0.485,0.121-1.056,0.309-1.449-0.052c-0.923-0.847-2.058-1.15-3.203-1.498
		c-1.112-0.339-1.279-1.28-0.417-2.061c0.869-0.786,1.754-1.552,2.473-2.49c0.543-0.708,0.755-1.484,0.582-2.354
		c-0.426-2.137-1.632-3.636-3.696-4.378c-1.657-0.595-3.318-0.333-4.921,0.203c-3.775,1.264-6.11,4.023-7.411,7.645
		c-1.913,5.327-1.904,10.785-0.629,16.247c0.848,3.632,2.625,6.721,5.845,8.776c2.478,1.582,5.161,2.393,8.113,1.567
		c3.921-1.094,6.521-5.326,5.595-9.115c-0.524-2.147-2.021-3.521-3.87-4.563c-0.45-0.255-0.898-0.471-0.883-1.088
		c0.015-0.61,0.451-0.793,0.918-1.043c0.946-0.508,1.775-1.142,1.688-2.419c-0.04-0.584,0.302-0.931,0.884-1.023
		c0.684-0.108,1.372-0.168,2.047-0.345c2.099-0.547,3.756-1.837,5.394-3.161c0.403-0.326,0.822-0.516,1.314-0.288
		c0.476,0.219,0.545,0.665,0.574,1.144c0.274,4.513,0.563,9.025,0.727,13.543c0.015,0.43,0.061,0.859,0.075,1.29
		c0.013,0.418,0.003,0.837,0.003,1.255c0.167-0.075,0.188-0.142,0.189-0.21c0.092-3.952,1.329-7.493,3.803-10.587
		c0.196-0.244,0.257-0.495,0.27-0.787c0.071-1.529,0.124-3.06,0.23-4.587c0.172-2.479,0.345-4.961,0.955-7.385
		c0.286-1.132,0.764-1.369,1.818-0.891c1.176,0.533,2.369,1.003,3.633,1.291c1.56,0.355,3.135,0.301,4.713,0.241
		c0.811-0.031,1.123,0.217,1.246,0.952c0.182,1.081,0.729,1.884,1.733,2.382c0.778,0.386,0.796,1.301,0.07,1.785
		c-0.238,0.158-0.557,0.21-0.752,0.516C58.239,36.33,62.887,38.953,66.287,43.896z M51.745,68.41
		c8.413-0.007,15.222-6.809,15.237-15.219c0.014-8.28-6.83-15.2-15.039-15.204c-8.596-0.004-15.403,6.793-15.383,15.364
		C36.58,61.584,43.469,68.416,51.745,68.41z M40.696,40.028c1.927-1.578,3.933-2.724,6.192-3.311
		c1.182-0.307,2.188-0.747,3.086-1.609c0.542-0.523,0.695-0.795,0.13-1.346c-0.261-0.255-0.433-0.636-0.553-0.991
		c-0.118-0.347-0.31-0.414-0.633-0.396c-2.397,0.125-4.706-0.279-6.912-1.226c-0.397-0.17-0.496-0.014-0.549,0.324
		C41.025,34.26,40.846,37.068,40.696,40.028z"/>
	<path fill-rule="evenodd" clip-rule="evenodd" fill="#175E8E" d="M34.654,54.933c-0.071,0.005-0.144,0.011-0.215,0.016
		c-0.228-0.46,0.117-0.829,0.215-1.316C34.654,54.117,34.654,54.525,34.654,54.933z"/>
	<path fill-rule="evenodd" clip-rule="evenodd" fill="#175E8E" d="M51.609,62.67c-0.718,0-1.435,0.012-2.151-0.003
		c-0.767-0.016-1.131-0.382-1.138-1.158c-0.013-1.388-0.027-2.774,0.009-4.159c0.013-0.488-0.146-0.586-0.597-0.576
		c-1.339,0.027-2.678,0.014-4.018,0.009c-0.943-0.004-1.281-0.348-1.284-1.303c-0.005-1.363-0.008-2.727,0.001-4.088
		c0.006-0.854,0.366-1.206,1.23-1.211c1.362-0.008,2.726-0.026,4.088,0.01c0.485,0.013,0.587-0.143,0.577-0.596
		c-0.03-1.314-0.017-2.63-0.008-3.944c0.006-0.854,0.364-1.209,1.228-1.214c1.386-0.008,2.773-0.009,4.159,0
		c0.854,0.006,1.209,0.366,1.214,1.229c0.008,1.339,0.019,2.678-0.008,4.017c-0.01,0.417,0.126,0.512,0.52,0.505
		c1.34-0.024,2.678-0.016,4.017-0.007c0.854,0.006,1.209,0.364,1.215,1.228c0.009,1.387,0.009,2.773-0.001,4.16
		c-0.005,0.853-0.367,1.208-1.229,1.213c-1.315,0.008-2.631,0.025-3.945-0.011c-0.485-0.014-0.586,0.145-0.576,0.597
		c0.029,1.338,0.015,2.678,0.01,4.016c-0.005,0.942-0.35,1.28-1.304,1.286C52.948,62.673,52.279,62.67,51.609,62.67z M52.911,58.046
		c0-0.67-0.004-1.34,0.002-2.009c0.008-0.911,0.348-1.258,1.251-1.263c1.34-0.007,2.679-0.014,4.019,0.007
		c0.364,0.005,0.507-0.082,0.48-0.471c-0.034-0.523-0.038-1.054,0.001-1.576c0.033-0.436-0.086-0.57-0.543-0.558
		c-1.314,0.034-2.629,0.017-3.944,0.01c-0.911-0.004-1.259-0.348-1.264-1.252c-0.007-1.338-0.015-2.678,0.007-4.017
		c0.005-0.364-0.082-0.507-0.471-0.481c-0.523,0.034-1.054,0.038-1.577-0.001c-0.435-0.033-0.569,0.087-0.557,0.543
		c0.034,1.314,0.017,2.63,0.01,3.945c-0.004,0.909-0.35,1.259-1.253,1.263c-1.387,0.007-2.774,0.014-4.16-0.006
		c-0.368-0.005-0.506,0.084-0.48,0.471c0.034,0.523,0.039,1.054-0.001,1.577c-0.034,0.438,0.09,0.567,0.544,0.557
		c1.362-0.034,2.726-0.017,4.089-0.011c0.909,0.004,1.258,0.349,1.262,1.253c0.007,1.387,0.014,2.773-0.006,4.161
		c-0.005,0.366,0.083,0.504,0.471,0.479c0.547-0.033,1.101-0.029,1.648-0.001c0.369,0.021,0.499-0.083,0.482-0.47
		C52.889,59.48,52.911,58.763,52.911,58.046z"/>
</g>
</svg>
