<?xml version="1.0" encoding="utf-8"?>
<!-- Generator: Adobe Illustrator 16.0.0, SVG Export Plug-In . SVG Version: 6.00 Build 0)  -->
<!DOCTYPE svg PUBLIC "-//W3C//DTD SVG 1.1//EN" "http://www.w3.org/Graphics/SVG/1.1/DTD/svg11.dtd">
<svg version="1.1" id="Layer_1" xmlns="http://www.w3.org/2000/svg" xmlns:xlink="http://www.w3.org/1999/xlink" x="0px" y="0px"
	 width="75px" height="75px" viewBox="0 0 75 75" enable-background="new 0 0 75 75" xml:space="preserve">
<path fill-rule="evenodd" clip-rule="evenodd" fill="#175E8E" d="M4.061,25.297c0.261-0.169,0.365,0.103,0.504,0.204
	c10.151,7.4,20.297,14.808,30.443,22.215c1.091,0.797,1.744,0.799,2.856-0.004c2.628-1.896,5.258-3.79,7.876-5.698
	c0.296-0.216,0.498-0.219,0.819-0.031c5.607,3.272,11.32,3.392,17.088,0.464c2.237-1.136,3.313-3.027,3.23-5.546
	c-0.01-0.293,0.066-0.447,0.327-0.586c0.514-0.274,1.003-0.596,1.512-0.904c0.153,0.156,0.071,0.354,0.071,0.527
	c0.005,8.448,0.005,16.896,0.004,25.344c0,1.464-0.741,2.196-2.222,2.196c-20.098,0.001-40.195-0.004-60.293,0.014
	c-1.089,0-1.756-0.495-2.216-1.403C4.061,49.825,4.061,37.562,4.061,25.297z"/>
<path fill-rule="evenodd" clip-rule="evenodd" fill="#175E8E" d="M39.35,21.81c-0.355,1.174-0.679,2.366-0.804,3.603
	c-0.511,5.044,0.943,9.472,4.2,13.319c0.351,0.415,0.338,0.563-0.099,0.87c-1.945,1.365-3.866,2.765-5.787,4.165
	c-0.285,0.208-0.476,0.277-0.811,0.032c-9.998-7.317-20.007-14.621-30.1-21.989C17.132,21.81,28.223,21.81,39.35,21.81z"/>
<path fill-rule="evenodd" clip-rule="evenodd" fill="#175E8E" d="M42.24,27.362c-0.008-6.621,5.149-12.368,11.648-13.08
	c7.217-0.79,13.506,3.926,14.736,11.072c0.207,1.206,0.288,2.425-0.029,3.637c-1.013,3.868-5.278,5.844-8.853,4.035
	c-0.867-0.439-1.548-0.551-2.529-0.195c-3.009,1.09-6.313-0.771-7.182-3.879c-0.858-3.078,1.077-6.338,4.187-7.049
	c3.154-0.721,6.264,1.298,6.88,4.454c0.17,0.866,0.157,1.721-0.101,2.559c-0.107,0.352-0.034,0.519,0.295,0.686
	c1.751,0.89,3.7-0.283,3.705-2.244c0.013-4.613-3.579-8.674-8.204-9.279c-5.804-0.758-10.804,3.636-10.758,9.454
	c0.055,6.956,7.389,11.486,13.646,8.426c0.207-0.102,0.409-0.214,0.617-0.316c0.984-0.481,2.063-0.167,2.563,0.745
	c0.504,0.918,0.21,2.013-0.736,2.567c-1.485,0.871-3.092,1.437-4.801,1.633c-7.152,0.822-13.101-3.368-14.764-10.379
	C42.332,29.243,42.222,28.26,42.24,27.362z M55.512,25.55c-1.024,0.003-1.884,0.86-1.89,1.884c-0.005,1.025,0.845,1.892,1.869,1.907
	c1.047,0.015,1.934-0.869,1.922-1.917C57.401,26.4,56.536,25.547,55.512,25.55z"/>
</svg>
