<?xml version="1.0" encoding="utf-8"?>
<!-- Generator: Adobe Illustrator 16.0.0, SVG Export Plug-In . SVG Version: 6.00 Build 0)  -->
<!DOCTYPE svg PUBLIC "-//W3C//DTD SVG 1.0//EN" "http://www.w3.org/TR/2001/REC-SVG-20010904/DTD/svg10.dtd">
<svg version="1.0" id="Layer_1" xmlns="http://www.w3.org/2000/svg" xmlns:xlink="http://www.w3.org/1999/xlink" x="0px" y="0px"
	 width="200px" height="150px" viewBox="0 0 200 150" enable-background="new 0 0 200 150" xml:space="preserve">
<g>
	<path fill="#23A552" d="M5.052,49.263V23.13h5.116l3.671,20.008L17.51,23.13h5.116v26.133h-3.7v-20.62l-3.699,20.62h-2.775
		l-3.7-20.62v20.62H5.052z"/>
	<path fill="#23A552" d="M26.325,49.263V23.13h10.174v2.8h-6.475v8.4h4.625v2.8h-4.625v9.333h6.475v2.799H26.325z"/>
	<path fill="#23A552" d="M38.768,49.263V23.13h5.737c2.708,0,4.618,0.56,5.731,1.677c1.112,1.118,1.669,3.048,1.669,5.79v10.267
		c0,2.868-0.566,4.984-1.698,6.351c-1.132,1.366-3.042,2.048-5.73,2.048H38.768z M42.468,46.463h2.037
		c0.607,0,1.128-0.056,1.562-0.168c0.434-0.112,0.785-0.315,1.055-0.613c0.27-0.296,0.481-0.578,0.636-0.845
		c0.153-0.268,0.262-0.683,0.325-1.247c0.062-0.564,0.099-1.029,0.108-1.393c0.01-0.364,0.014-0.931,0.014-1.7
		c0-0.252,0-0.441,0-0.568v-8.4c0-0.477-0.002-0.855-0.006-1.138c-0.005-0.282-0.02-0.615-0.043-0.999
		c-0.024-0.384-0.061-0.687-0.109-0.911c-0.048-0.224-0.116-0.474-0.202-0.751c-0.086-0.277-0.195-0.493-0.325-0.648
		s-0.289-0.319-0.477-0.489c-0.188-0.17-0.405-0.296-0.65-0.379c-0.246-0.083-0.532-0.151-0.86-0.204
		c-0.328-0.054-0.693-0.081-1.098-0.081h-1.965V46.463z"/>
	<path fill="#23A552" d="M79.826,49.526c-1.09,0-2.048-0.156-2.877-0.467c-0.828-0.311-1.508-0.74-2.036-1.29
		c-0.531-0.549-0.962-1.235-1.294-2.058c-0.333-0.82-0.566-1.699-0.7-2.632c-0.136-0.933-0.204-1.988-0.204-3.164v-7.453
		c0-1.176,0.067-2.231,0.204-3.165c0.134-0.933,0.368-1.811,0.7-2.632c0.332-0.821,0.764-1.504,1.294-2.048
		c0.528-0.545,1.208-0.973,2.036-1.284c0.829-0.311,1.787-0.466,2.877-0.466c1.204,0,2.244,0.18,3.122,0.539
		c0.876,0.36,1.577,0.89,2.103,1.59c0.524,0.7,0.919,1.512,1.185,2.436c0.264,0.923,0.421,2.002,0.47,3.237
		c0.009,0.185,0.014,0.472,0.014,0.861H83.02v-0.832c-0.01-0.515-0.029-0.955-0.059-1.319c-0.028-0.365-0.081-0.741-0.158-1.13
		c-0.078-0.388-0.19-0.712-0.339-0.97c-0.151-0.257-0.338-0.496-0.565-0.715c-0.226-0.218-0.513-0.379-0.86-0.481
		s-0.751-0.153-1.213-0.153c-0.598,0-1.111,0.098-1.54,0.292c-0.428,0.195-0.763,0.444-1.003,0.75
		c-0.242,0.307-0.428,0.717-0.558,1.233c-0.129,0.515-0.213,1.018-0.252,1.509c-0.039,0.491-0.057,1.097-0.057,1.816v9.333
		c0,0.622,0.026,1.186,0.08,1.691c0.052,0.505,0.156,1.008,0.311,1.51c0.154,0.5,0.354,0.921,0.599,1.262
		c0.247,0.339,0.574,0.614,0.983,0.824c0.41,0.208,0.889,0.313,1.438,0.313s1.021-0.107,1.416-0.32
		c0.396-0.214,0.706-0.488,0.931-0.817c0.228-0.331,0.406-0.754,0.535-1.269c0.13-0.516,0.215-1.016,0.253-1.503
		c0.039-0.485,0.059-1.05,0.059-1.691V39.93h3.699v0.933c0,1.352-0.119,2.538-0.354,3.559c-0.236,1.021-0.617,1.922-1.142,2.705
		c-0.526,0.782-1.238,1.379-2.139,1.786C82.184,49.322,81.097,49.526,79.826,49.526z"/>
	<path fill="#23A552" d="M87.557,49.263l5.55-26.133h3.699l5.55,26.133h-3.7l-1.388-6.533h-4.625l-1.387,6.533H87.557z
		 M93.106,39.93h3.699l-1.85-11.2L93.106,39.93z"/>
	<path fill="#23A552" d="M104.436,49.263V23.13h3.7v23.333h6.474v2.799H104.436z"/>
</g>
<g>
	<g>
		<path fill="#222F4A" d="M55.658,20.663c0.535-0.92,1.417-1.566,2.436-1.853c0.273-0.077,0.551-0.128,0.833-0.157
			c0.13-0.012,0.261-0.019,0.392-0.021c0.071-0.001,1.187-0.026,1.61,0.154c0.178,0.076,0.355,0.202,0.418,0.393
			c0.073,0.225-0.029,0.525-0.171,0.692c-0.38,0.439-0.973,0.471-0.973,0.471s-0.031,0.074-0.055,0.11
			c-0.086,0.129-0.225,0.203-0.376,0.222c-0.129,0.016-0.266-0.001-0.396-0.001c-0.162,0.002-0.326,0.01-0.489,0.027
			c-0.441,0.045-0.882,0.142-1.289,0.323c-0.458,0.205-0.865,0.523-1.118,0.961c-0.34,0.587-0.363,1.296-0.259,1.951
			c0.063,0.396,0.151,0.793,0.37,1.135c0.136,0.212,0.311,0.396,0.502,0.556c0.215,0.182,0.488,0.3,0.745,0.412
			c1.093,0.474,2.286,0.699,3.451,0.911c1.196,0.215,2.399,0.395,3.583,0.668c1.071,0.248,2.176,0.563,3.095,1.186
			c0.775,0.527,1.356,1.288,1.523,2.223c0.04,0.233,0.053,0.466,0.052,0.702c-0.003,0.46-0.051,0.924-0.159,1.372
			c-0.137,0.559-0.378,1.095-0.735,1.55c-0.36,0.456-0.824,0.817-1.343,1.08c-1.073,0.542-2.295,0.669-3.475,0.81
			c-0.588,0.07-1.184,0.128-1.757,0.281c-0.499,0.133-1.024,0.358-1.216,0.88c-0.113,0.306-0.167,0.682-0.161,1.018
			c0.005,0.262,0.057,0.529,0.215,0.743c0.163,0.22,0.407,0.356,0.658,0.455c0.548,0.216,1.154,0.277,1.736,0.331
			c0.604,0.055,1.214,0.079,1.815,0.173c0.522,0.082,1.144,0.221,1.464,0.687c0.228,0.329,0.228,0.79,0.117,1.163
			c-0.167,0.563-0.656,0.892-1.055,1.285c-0.413,0.406-0.713,0.893-0.916,1.438c-0.166,0.445-0.268,0.909-0.348,1.376
			c-0.001-0.625,0.05-1.256,0.24-1.855c0.111-0.353,0.268-0.689,0.475-0.997c0.211-0.316,0.48-0.585,0.715-0.885
			c0.195-0.248,0.301-0.516,0.262-0.835c-0.006-0.048-0.008-0.086-0.023-0.129c-0.052-0.155-0.22-0.22-0.364-0.262
			c-0.351-0.1-0.731-0.098-1.094-0.099c-0.378-0.001-0.757,0.012-1.136,0.016c-1.405,0.013-3.201-0.08-3.901-1.531
			c-0.3-0.622-0.317-1.345-0.213-2.017c0.081-0.531,0.257-1.032,0.607-1.448c0.48-0.572,1.179-0.887,1.884-1.081
			c0.75-0.209,1.526-0.294,2.294-0.409c0.74-0.11,1.503-0.224,2.193-0.524c0.324-0.14,0.631-0.329,0.872-0.588
			c0.228-0.246,0.387-0.546,0.486-0.865c0.104-0.33,0.15-0.677,0.163-1.022c0.006-0.15,0.011-0.301-0.006-0.452
			c-0.085-0.727-0.671-1.187-1.28-1.504c-0.666-0.349-1.399-0.567-2.123-0.759c-0.762-0.202-1.532-0.367-2.301-0.539
			c-1.509-0.335-3.053-0.663-4.463-1.317c-0.654-0.304-1.285-0.692-1.78-1.223c-0.515-0.551-0.803-1.099-0.91-1.994
			C54.801,22.568,55.12,21.586,55.658,20.663z"/>
	</g>
	<g>
		<path fill="#304166" d="M60.868,18.928c0,0-0.043-0.021-0.134-0.042c-0.091-0.022-0.228-0.046-0.407-0.063
			c-0.18-0.018-0.402-0.028-0.665-0.03c-0.261-0.001-0.563,0.005-0.895,0.048c-0.332,0.048-0.699,0.134-1.071,0.291
			c-0.375,0.152-0.755,0.378-1.105,0.686c-0.175,0.154-0.341,0.33-0.491,0.525c-0.152,0.196-0.283,0.415-0.405,0.647
			c-0.123,0.231-0.234,0.476-0.324,0.735c-0.087,0.259-0.154,0.533-0.193,0.816c-0.082,0.567-0.055,1.173,0.047,1.78
			c0.058,0.303,0.153,0.603,0.302,0.88c0.149,0.278,0.351,0.532,0.583,0.766c0.458,0.465,1.045,0.821,1.669,1.107
			c0.629,0.289,1.3,0.517,1.993,0.712c0.693,0.196,1.409,0.355,2.134,0.516c0.182,0.04,0.365,0.08,0.547,0.12
			c0.183,0.044,0.365,0.085,0.548,0.129c0.366,0.085,0.734,0.171,1.104,0.259c0.369,0.082,0.742,0.182,1.107,0.293
			c0.368,0.112,0.733,0.24,1.088,0.398c0.175,0.077,0.353,0.166,0.519,0.26c0.171,0.099,0.335,0.206,0.489,0.331
			c0.154,0.124,0.296,0.265,0.417,0.425c0.121,0.16,0.214,0.342,0.273,0.535c0.062,0.193,0.083,0.396,0.08,0.592
			c-0.002,0.197-0.013,0.391-0.034,0.585c-0.047,0.388-0.143,0.776-0.325,1.129c-0.088,0.176-0.201,0.341-0.333,0.489
			c-0.131,0.146-0.285,0.276-0.449,0.384c-0.325,0.22-0.688,0.364-1.056,0.479c-0.367,0.112-0.741,0.186-1.113,0.25
			c-0.371,0.062-0.743,0.113-1.111,0.165c-0.734,0.105-1.461,0.211-2.137,0.445c-0.336,0.118-0.658,0.27-0.941,0.471
			c-0.282,0.199-0.523,0.454-0.69,0.747c-0.168,0.294-0.269,0.621-0.326,0.95c-0.056,0.333-0.082,0.665-0.06,0.989
			c0.02,0.325,0.09,0.642,0.219,0.929c0.136,0.288,0.32,0.537,0.555,0.733c0.232,0.198,0.502,0.34,0.78,0.441
			c0.278,0.101,0.565,0.168,0.848,0.209c0.569,0.083,1.123,0.089,1.648,0.085c0.264-0.002,0.519-0.003,0.769-0.007
			c0.25-0.001,0.493-0.001,0.729,0.009c0.235,0.011,0.464,0.041,0.678,0.102c0.107,0.028,0.212,0.07,0.3,0.134
			c0.09,0.063,0.159,0.154,0.191,0.256c0.048,0.203,0.045,0.404-0.003,0.588c-0.049,0.183-0.138,0.342-0.239,0.477
			c-0.104,0.135-0.211,0.253-0.306,0.369c-0.099,0.114-0.192,0.22-0.273,0.321c-0.165,0.203-0.28,0.394-0.365,0.554
			c-0.085,0.16-0.14,0.287-0.174,0.374c-0.034,0.086-0.05,0.133-0.05,0.133s0.016-0.046,0.049-0.133
			c0.033-0.088,0.085-0.215,0.169-0.376c0.082-0.161,0.197-0.354,0.36-0.561c0.081-0.104,0.172-0.21,0.268-0.325
			c0.095-0.117,0.2-0.238,0.301-0.371c0.099-0.135,0.184-0.291,0.229-0.471c0.044-0.177,0.044-0.377-0.005-0.567
			c-0.03-0.094-0.093-0.176-0.177-0.234c-0.085-0.059-0.184-0.096-0.289-0.124c-0.209-0.058-0.435-0.083-0.667-0.092
			c-0.233-0.008-0.475-0.004-0.725,0.001c-0.249,0.005-0.506,0.009-0.768,0.015c-0.527,0.011-1.085,0.007-1.663-0.073
			c-0.288-0.041-0.58-0.105-0.866-0.209c-0.287-0.101-0.569-0.246-0.813-0.452c-0.245-0.2-0.448-0.472-0.586-0.765
			c-0.138-0.299-0.212-0.629-0.235-0.965c-0.024-0.335,0-0.679,0.055-1.017c0.056-0.34,0.158-0.681,0.334-0.993
			c0.174-0.313,0.428-0.582,0.723-0.792c0.296-0.212,0.628-0.368,0.974-0.49c1.388-0.479,2.921-0.445,4.363-0.872
			c0.357-0.112,0.71-0.254,1.017-0.463c0.309-0.205,0.563-0.486,0.731-0.819c0.171-0.332,0.26-0.704,0.304-1.079
			c0.022-0.187,0.032-0.378,0.033-0.568c0.002-0.188-0.018-0.371-0.072-0.546c-0.104-0.355-0.348-0.655-0.639-0.889
			c-0.145-0.119-0.303-0.223-0.465-0.316c-0.168-0.096-0.333-0.179-0.508-0.257c-0.347-0.155-0.706-0.281-1.07-0.393
			c-0.363-0.111-0.727-0.209-1.098-0.293c-0.37-0.087-0.735-0.176-1.102-0.261c-0.183-0.043-0.364-0.086-0.546-0.13
			c-0.183-0.041-0.363-0.081-0.546-0.121c-0.726-0.162-1.443-0.325-2.141-0.521c-0.697-0.198-1.376-0.43-2.008-0.726
			c-0.634-0.296-1.229-0.661-1.699-1.145c-0.232-0.24-0.44-0.503-0.593-0.793c-0.155-0.29-0.25-0.602-0.307-0.912
			c-0.1-0.62-0.123-1.232-0.037-1.811c0.042-0.288,0.111-0.567,0.203-0.83c0.092-0.264,0.208-0.512,0.335-0.744
			c0.125-0.232,0.262-0.454,0.418-0.651c0.156-0.198,0.327-0.375,0.506-0.528c0.358-0.308,0.747-0.532,1.126-0.681
			c0.38-0.154,0.748-0.236,1.083-0.28c0.336-0.04,0.638-0.042,0.901-0.038c0.262,0.005,0.484,0.019,0.664,0.039
			c0.18,0.019,0.316,0.043,0.408,0.067C60.824,18.907,60.868,18.928,60.868,18.928z"/>
	</g>
	<g>
		<path fill="#304166" d="M60.195,20.188c0,0,0.125-0.033,0.294-0.106c0.043-0.019,0.086-0.042,0.134-0.065
			c0.045-0.025,0.092-0.054,0.14-0.085c0.045-0.032,0.09-0.068,0.134-0.106c0.043-0.038,0.083-0.081,0.12-0.125
			c0.031-0.04,0.062-0.093,0.082-0.144c0.02-0.052,0.04-0.105,0.048-0.157c0.008-0.052,0.009-0.102,0-0.146
			c0.002-0.005-0.006-0.024-0.009-0.035c-0.004-0.008-0.006-0.018-0.012-0.027c-0.008-0.021-0.019-0.04-0.031-0.057
			c-0.05-0.071-0.112-0.121-0.155-0.155c-0.044-0.033-0.072-0.05-0.072-0.05s0.033,0.005,0.087,0.023
			c0.052,0.02,0.129,0.052,0.207,0.124c0.018,0.017,0.037,0.039,0.054,0.063c0.009,0.012,0.018,0.027,0.025,0.041
			c0.005,0.014,0.009,0.02,0.016,0.041c0.023,0.061,0.03,0.128,0.024,0.194c-0.006,0.065-0.019,0.133-0.043,0.196
			c-0.025,0.064-0.055,0.125-0.101,0.186c-0.044,0.052-0.093,0.1-0.144,0.143c-0.05,0.042-0.106,0.077-0.161,0.108
			c-0.054,0.03-0.111,0.053-0.163,0.073c-0.054,0.02-0.105,0.033-0.153,0.043c-0.096,0.022-0.176,0.028-0.233,0.028
			C60.227,20.192,60.195,20.188,60.195,20.188z"/>
	</g>
	<g>
		<path fill="#304166" d="M59.491,19.093c0,0.079,0.097,0.19,0.175,0.19c0.079,0,0.142-0.064,0.142-0.142
			C59.808,19.063,59.491,19.015,59.491,19.093z"/>
	</g>
	<g>
		<path fill="#304166" d="M66.007,29.457c0,0-3.292-0.989-5.789-1.48c0,0,1.143,0.139,1.785,0.268l-1.062-0.302
			c0,0,1.186,0.154,1.751,0.282l-0.985-0.282c0,0,1.534,0.083,3.091,0.719l-1.006-0.222c0,0,1.003,0.29,1.575,0.598l-1.443-0.361
			C63.925,28.677,65.138,29.035,66.007,29.457z"/>
	</g>
	<g>
		<path fill="#304166" d="M65.521,34.735c0,0-1.778,0.241-2.745,0.457c-0.966,0.215-1.43,0.263-2.171,0.75
			c0,0,0.529-0.214,1.018-0.305c0,0-0.302,0.097-0.553,0.206c0,0,0.743-0.225,1.36-0.315c0,0-0.141,0.097-0.452,0.2
			c0,0,1.086-0.277,2.261-0.389c0,0-0.422-0.055-0.666-0.042c0,0,1.078-0.18,1.398-0.211c0,0-0.527,0.018-0.899,0.064L65.521,34.735
			z"/>
	</g>
	<g>
		<path fill="#304166" d="M64.819,41.151c0,0-2.583,0.115-3.551-0.2c0,0,0.424,0.088,0.745,0.066c0,0-0.378-0.107-0.546-0.152
			c0,0,0.918,0.064,1.079,0.083L62,40.827c0,0,1.276,0.11,2.027,0.115c0,0-0.295,0.043-0.52,0.057l0.892,0.039l-0.468,0.046
			L64.819,41.151z"/>
	</g>
</g>
<g>
	<path fill="#304269" d="M59.984,11.576c0,0-3.788-0.064-3.499-2.599c0.289-2.536-1.059-3.884-3.177-2.407
		c-2.119,1.476-3.724,1.316-3.724,1.316s0.032,2.118,3.307,3.049c3.273,0.931,3.888,2.981,7.093,3.038V11.576z"/>
</g>
<g>
	<path fill="#304269" d="M49.36,8.463c0,0-6.226,2.118-11.329,1.669c0,0,0.76,2.631,4.472,2.311
		c3.711-0.321,7.595-2.696,7.595-2.696S49.584,9.201,49.36,8.463z"/>
</g>
<g>
	<path fill="#304269" d="M50.184,9.823c0,0-5.67,3.332-10.758,3.923c0,0,1.276,2.424,4.847,1.36c3.57-1.064,7.083-4.354,7.083-4.354
		S50.683,10.389,50.184,9.823z"/>
</g>
<g>
	<path fill="#304269" d="M51.545,10.815c0,0-4.511,4.531-9.3,6.349c0,0,1.831,2.039,5.031,0.133
		c3.203-1.906,5.945-5.851,5.945-5.851S52.258,11.246,51.545,10.815z"/>
</g>
<g>
	<path fill="#304269" d="M53.331,11.473c0,0-2.194,4.305-5.381,6.13c0,0,2.012,1.781,3.942-0.064
		c1.929-1.846,2.882-5.422,2.882-5.422S54.393,11.772,53.331,11.473z"/>
</g>
<g>
	<path fill="#304269" d="M54.884,12.171c0,0-0.772,4.09-3.05,5.879c0,0,2.044,1.51,3.23-0.23c1.178-1.73,1.23-4.65,1.23-4.65
		S55.789,12.624,54.884,12.171z"/>
</g>
<g>
	<path fill="#304269" d="M56.437,13.305c0,0,0.139,3.125-1.299,4.806c0,0,2.213,0.654,2.673-0.741
		c0.524-1.592,0.095-3.378,0.095-3.378S57.251,13.738,56.437,13.305z"/>
</g>
<g>
	<path fill="#304269" d="M58.07,14.058c0,0,0.559,1.751,0,3.271c0.021,0.059,1.854,0.207,1.847-1.669
		c-0.003-0.902,0.05-1.164,0.066-1.282C59.984,14.377,58.715,14.327,58.07,14.058z"/>
</g>
<g>
	<path fill="#304269" d="M66.147,11.576c0,0,3.786-0.064,3.498-2.599c-0.288-2.536,1.059-3.884,3.176-2.407
		c2.119,1.476,3.723,1.316,3.723,1.316s-0.032,2.118-3.305,3.049c-3.272,0.931-3.888,2.981-7.092,3.038V11.576z"/>
</g>
<g>
	<path fill="#304269" d="M76.77,8.463c0,0,6.227,2.118,11.329,1.669c0,0-0.759,2.631-4.472,2.311
		c-3.711-0.321-7.595-2.696-7.595-2.696S76.544,9.201,76.77,8.463z"/>
</g>
<g>
	<path fill="#304269" d="M75.945,9.823c0,0,5.67,3.332,10.759,3.923c0,0-1.277,2.424-4.848,1.36
		c-3.57-1.064-7.083-4.354-7.083-4.354S75.447,10.389,75.945,9.823z"/>
</g>
<g>
	<path fill="#304269" d="M74.584,10.815c0,0,4.512,4.531,9.3,6.349c0,0-1.831,2.039-5.032,0.133
		c-3.202-1.906-5.944-5.851-5.944-5.851S73.873,11.246,74.584,10.815z"/>
</g>
<g>
	<path fill="#304269" d="M72.799,11.473c0,0,2.193,4.305,5.381,6.13c0,0-2.013,1.781-3.942-0.064
		c-1.93-1.846-2.882-5.422-2.882-5.422S71.737,11.772,72.799,11.473z"/>
</g>
<g>
	<path fill="#304269" d="M71.245,12.171c0,0,0.774,4.09,3.051,5.879c0,0-2.044,1.51-3.229-0.23c-1.181-1.73-1.231-4.65-1.231-4.65
		S70.342,12.624,71.245,12.171z"/>
</g>
<g>
	<path fill="#304269" d="M69.693,13.305c0,0-0.139,3.125,1.299,4.806c0,0-2.215,0.654-2.673-0.741
		c-0.523-1.592-0.094-3.378-0.094-3.378S68.878,13.738,69.693,13.305z"/>
</g>
<g>
	<path fill="#304269" d="M68.06,14.058c0,0-0.559,1.751,0,3.271c-0.02,0.059-1.854,0.207-1.847-1.669
		c0.003-0.902-0.05-1.164-0.065-1.282C66.147,14.377,67.416,14.327,68.06,14.058z"/>
</g>
<g>
	<g>
		<path fill="#23A552" d="M63.065,14.958h-0.968c-0.243,0-0.438,0.201-0.428,0.444l1.16,33.574c0.009,0.306,0.462,0.306,0.474,0
			l1.16-33.574c0.008-0.243-0.186-0.444-0.43-0.444H63.065z"/>
	</g>
</g>
<g>
	<g>
		<path fill="#293859" d="M70.539,20.663c-0.535-0.92-1.418-1.566-2.438-1.853c-0.272-0.077-0.551-0.128-0.832-0.157
			c-0.13-0.012-0.261-0.019-0.392-0.021c-0.071-0.001-1.185-0.026-1.609,0.154c-0.178,0.076-0.355,0.202-0.42,0.393
			c-0.072,0.225,0.03,0.525,0.172,0.692c0.38,0.439,0.973,0.471,0.973,0.471s0.032,0.074,0.055,0.11
			c0.086,0.129,0.226,0.203,0.377,0.222c0.129,0.016,0.265-0.001,0.396-0.001c0.162,0.002,0.326,0.01,0.487,0.027
			c0.441,0.045,0.884,0.142,1.29,0.323c0.458,0.205,0.865,0.523,1.118,0.961c0.34,0.587,0.364,1.296,0.26,1.951
			c-0.063,0.396-0.151,0.793-0.371,1.135c-0.136,0.212-0.31,0.396-0.5,0.556c-0.217,0.182-0.489,0.3-0.746,0.412
			c-1.092,0.474-2.287,0.699-3.453,0.911c-1.195,0.215-2.397,0.395-3.581,0.668c-1.07,0.248-2.176,0.563-3.096,1.186
			c-0.774,0.527-1.356,1.288-1.522,2.223c-0.041,0.233-0.052,0.466-0.052,0.702c0.003,0.46,0.05,0.924,0.159,1.372
			c0.137,0.559,0.377,1.095,0.734,1.55c0.359,0.456,0.825,0.817,1.342,1.08c1.076,0.542,2.297,0.669,3.476,0.81
			c0.588,0.07,1.184,0.128,1.756,0.281c0.5,0.133,1.024,0.358,1.218,0.88c0.113,0.306,0.166,0.682,0.16,1.018
			c-0.005,0.262-0.057,0.529-0.216,0.743c-0.162,0.22-0.407,0.356-0.657,0.455c-0.548,0.216-1.155,0.277-1.737,0.331
			c-0.604,0.055-1.214,0.079-1.813,0.173c-0.523,0.082-1.145,0.221-1.465,0.687c-0.227,0.329-0.227,0.79-0.116,1.163
			c0.166,0.563,0.656,0.892,1.054,1.285c0.413,0.406,0.714,0.893,0.916,1.438c0.166,0.445,0.267,0.909,0.348,1.376
			c0.003-0.625-0.049-1.256-0.238-1.855c-0.113-0.353-0.269-0.689-0.475-0.997c-0.213-0.316-0.48-0.585-0.715-0.885
			c-0.195-0.248-0.301-0.516-0.263-0.835c0.006-0.048,0.009-0.086,0.024-0.129c0.053-0.155,0.221-0.22,0.365-0.262
			c0.351-0.1,0.731-0.098,1.093-0.099c0.378-0.001,0.756,0.012,1.134,0.016c1.406,0.013,3.204-0.08,3.903-1.531
			c0.299-0.622,0.317-1.345,0.213-2.017c-0.083-0.531-0.257-1.032-0.608-1.448c-0.479-0.572-1.179-0.887-1.885-1.081
			c-0.75-0.209-1.525-0.294-2.294-0.409c-0.738-0.11-1.501-0.224-2.192-0.524c-0.322-0.14-0.63-0.329-0.871-0.588
			c-0.229-0.246-0.388-0.546-0.487-0.865c-0.104-0.33-0.15-0.677-0.165-1.022c-0.006-0.15-0.008-0.301,0.008-0.452
			c0.085-0.727,0.671-1.187,1.279-1.504c0.666-0.349,1.399-0.567,2.123-0.759c0.761-0.202,1.532-0.367,2.301-0.539
			c1.51-0.335,3.053-0.663,4.463-1.317c0.654-0.304,1.286-0.692,1.779-1.223c0.515-0.551,0.804-1.099,0.91-1.994
			C71.396,22.568,71.076,21.586,70.539,20.663z"/>
	</g>
	<g>
		<path fill="#344873" d="M65.328,18.928c0,0,0.044-0.021,0.134-0.045c0.092-0.023,0.228-0.048,0.408-0.067
			c0.179-0.02,0.401-0.034,0.664-0.039c0.262-0.004,0.564-0.002,0.9,0.038c0.335,0.044,0.702,0.126,1.083,0.28
			c0.38,0.148,0.767,0.373,1.126,0.681c0.179,0.154,0.35,0.33,0.505,0.528c0.157,0.197,0.294,0.418,0.419,0.651
			c0.128,0.232,0.242,0.48,0.335,0.744c0.092,0.263,0.16,0.542,0.203,0.83c0.087,0.578,0.063,1.19-0.036,1.811
			c-0.056,0.31-0.153,0.622-0.307,0.912c-0.153,0.291-0.361,0.554-0.594,0.793c-0.47,0.484-1.063,0.849-1.699,1.145
			c-0.632,0.296-1.312,0.528-2.008,0.726c-0.698,0.197-1.415,0.36-2.14,0.521c-0.183,0.041-0.365,0.081-0.547,0.121
			c-0.182,0.044-0.363,0.087-0.546,0.13c-0.367,0.085-0.733,0.174-1.103,0.261c-0.371,0.083-0.734,0.182-1.099,0.293
			c-0.363,0.112-0.722,0.238-1.068,0.393c-0.175,0.079-0.341,0.162-0.509,0.257c-0.162,0.093-0.321,0.197-0.465,0.316
			c-0.291,0.234-0.534,0.534-0.638,0.889c-0.056,0.175-0.076,0.358-0.073,0.546c0.002,0.19,0.011,0.381,0.032,0.568
			c0.045,0.375,0.134,0.748,0.305,1.079c0.167,0.333,0.422,0.614,0.731,0.819c0.308,0.209,0.66,0.352,1.016,0.463
			c1.442,0.427,2.976,0.393,4.364,0.872c0.345,0.122,0.678,0.278,0.974,0.49c0.295,0.209,0.548,0.478,0.724,0.792
			c0.176,0.312,0.277,0.653,0.333,0.993c0.055,0.338,0.08,0.682,0.056,1.017c-0.024,0.335-0.099,0.666-0.235,0.965
			c-0.141,0.292-0.341,0.564-0.588,0.765c-0.244,0.206-0.525,0.351-0.812,0.452c-0.287,0.104-0.58,0.169-0.866,0.209
			c-0.578,0.081-1.136,0.084-1.662,0.073c-0.264-0.006-0.52-0.01-0.77-0.015c-0.249-0.005-0.491-0.009-0.725-0.001
			c-0.233,0.008-0.458,0.034-0.667,0.092c-0.105,0.028-0.206,0.064-0.29,0.124c-0.083,0.058-0.146,0.14-0.177,0.234
			c-0.048,0.19-0.048,0.39-0.003,0.567c0.045,0.18,0.131,0.336,0.229,0.471c0.102,0.133,0.208,0.254,0.301,0.371
			c0.097,0.115,0.189,0.221,0.27,0.325c0.162,0.206,0.277,0.4,0.359,0.561c0.082,0.161,0.135,0.288,0.169,0.376
			c0.033,0.086,0.049,0.133,0.049,0.133s-0.016-0.046-0.051-0.133c-0.034-0.087-0.088-0.214-0.173-0.374
			c-0.084-0.16-0.201-0.351-0.365-0.554c-0.083-0.101-0.175-0.208-0.272-0.321c-0.097-0.116-0.202-0.234-0.307-0.369
			c-0.102-0.135-0.19-0.294-0.24-0.477c-0.048-0.184-0.052-0.385-0.002-0.588c0.03-0.103,0.1-0.193,0.19-0.256
			c0.088-0.064,0.192-0.105,0.3-0.134c0.212-0.062,0.441-0.091,0.678-0.102c0.236-0.011,0.479-0.011,0.728-0.009
			c0.251,0.003,0.506,0.004,0.77,0.007c0.525,0.004,1.08-0.002,1.647-0.085c0.283-0.041,0.57-0.108,0.848-0.209
			c0.279-0.102,0.548-0.244,0.78-0.441c0.235-0.196,0.419-0.445,0.556-0.733c0.129-0.287,0.199-0.604,0.22-0.929
			s-0.006-0.656-0.062-0.989c-0.057-0.329-0.156-0.655-0.325-0.95c-0.167-0.293-0.408-0.548-0.691-0.747
			c-0.283-0.201-0.605-0.353-0.94-0.471c-0.676-0.234-1.404-0.34-2.137-0.445c-0.369-0.051-0.739-0.103-1.112-0.165
			c-0.373-0.064-0.747-0.138-1.114-0.25c-0.365-0.115-0.729-0.259-1.055-0.479c-0.163-0.108-0.316-0.238-0.448-0.384
			c-0.133-0.147-0.245-0.313-0.335-0.489c-0.181-0.354-0.275-0.742-0.322-1.129c-0.023-0.194-0.033-0.389-0.035-0.585
			c-0.003-0.196,0.017-0.399,0.078-0.592c0.06-0.193,0.153-0.375,0.275-0.535c0.12-0.16,0.262-0.301,0.416-0.425
			c0.154-0.125,0.317-0.232,0.489-0.331c0.166-0.094,0.344-0.183,0.52-0.26c0.355-0.158,0.72-0.286,1.087-0.398
			c0.366-0.112,0.739-0.212,1.108-0.293c0.369-0.087,0.738-0.173,1.103-0.259c0.184-0.043,0.367-0.085,0.55-0.129
			c0.182-0.04,0.363-0.08,0.546-0.12c0.725-0.16,1.441-0.32,2.134-0.516c0.693-0.195,1.363-0.423,1.993-0.712
			c0.625-0.286,1.213-0.642,1.669-1.107c0.232-0.234,0.433-0.488,0.583-0.766c0.151-0.277,0.246-0.578,0.302-0.88
			c0.103-0.607,0.13-1.213,0.049-1.78c-0.04-0.284-0.105-0.557-0.195-0.816c-0.088-0.259-0.2-0.503-0.321-0.735
			c-0.123-0.232-0.254-0.451-0.406-0.647c-0.15-0.195-0.317-0.371-0.491-0.525c-0.35-0.308-0.731-0.534-1.105-0.686
			c-0.375-0.156-0.74-0.242-1.072-0.291c-0.333-0.043-0.635-0.049-0.896-0.048c-0.263,0.002-0.485,0.013-0.664,0.03
			c-0.18,0.017-0.316,0.041-0.406,0.063C65.372,18.908,65.328,18.928,65.328,18.928z"/>
	</g>
	<g>
		<path fill="#344873" d="M66.002,20.188c0,0-0.032,0.004-0.089,0.004c-0.056,0-0.138-0.006-0.234-0.028
			c-0.047-0.01-0.099-0.023-0.153-0.043c-0.053-0.021-0.109-0.043-0.164-0.073c-0.053-0.032-0.11-0.066-0.161-0.108
			c-0.05-0.043-0.1-0.091-0.143-0.143c-0.046-0.061-0.076-0.122-0.101-0.186c-0.024-0.063-0.038-0.131-0.044-0.196
			c-0.006-0.066,0.002-0.133,0.023-0.194c0.007-0.021,0.012-0.027,0.019-0.041c0.008-0.014,0.016-0.029,0.024-0.041
			c0.018-0.023,0.036-0.045,0.055-0.063c0.076-0.072,0.154-0.104,0.208-0.124c0.054-0.019,0.085-0.023,0.085-0.023
			s-0.027,0.018-0.071,0.05c-0.042,0.034-0.104,0.083-0.155,0.155c-0.013,0.017-0.024,0.037-0.031,0.057
			c-0.005,0.01-0.008,0.019-0.012,0.027c-0.003,0.011-0.01,0.03-0.009,0.035c-0.009,0.044-0.008,0.093,0,0.146
			c0.008,0.052,0.027,0.104,0.048,0.157c0.02,0.051,0.05,0.104,0.082,0.144c0.036,0.044,0.076,0.088,0.12,0.125
			c0.044,0.039,0.088,0.075,0.136,0.106c0.046,0.031,0.092,0.06,0.139,0.085c0.045,0.024,0.091,0.046,0.134,0.065
			C65.876,20.155,66.002,20.188,66.002,20.188z"/>
	</g>
	<g>
		<path fill="#344873" d="M66.706,19.093c0,0.079-0.098,0.19-0.175,0.19c-0.079,0-0.142-0.064-0.142-0.142
			C66.388,19.063,66.706,19.015,66.706,19.093z"/>
	</g>
	<g>
		<path fill="#344873" d="M60.189,29.457c0,0,3.291-0.989,5.789-1.48c0,0-1.144,0.139-1.786,0.268l1.062-0.302
			c0,0-1.187,0.154-1.751,0.282l0.985-0.282c0,0-1.534,0.083-3.093,0.719l1.008-0.222c0,0-1.004,0.29-1.576,0.598l1.444-0.361
			C62.272,28.677,61.057,29.035,60.189,29.457z"/>
	</g>
	<g>
		<path fill="#344873" d="M60.675,34.735c0,0,1.779,0.241,2.744,0.457c0.967,0.215,1.429,0.263,2.172,0.75
			c0,0-0.529-0.214-1.017-0.305c0,0,0.303,0.097,0.553,0.206c0,0-0.743-0.225-1.359-0.315c0,0,0.141,0.097,0.451,0.2
			c0,0-1.085-0.277-2.261-0.389c0,0,0.423-0.055,0.667-0.042c0,0-1.077-0.18-1.398-0.211c0,0,0.526,0.018,0.9,0.064L60.675,34.735z"
			/>
	</g>
	<g>
		<path fill="#344873" d="M61.377,41.151c0,0,2.583,0.115,3.551-0.2c0,0-0.424,0.088-0.745,0.066c0,0,0.378-0.107,0.545-0.152
			c0,0-0.917,0.064-1.078,0.083l0.546-0.121c0,0-1.277,0.11-2.027,0.115c0,0,0.294,0.043,0.519,0.057l-0.892,0.039l0.469,0.046
			L61.377,41.151z"/>
	</g>
</g>
<g>
	<path fill="#304269" d="M66.954,11.149c-0.163-0.163-0.387-0.264-0.635-0.264c-0.389,0-0.742-0.158-0.997-0.413
		c-0.256-0.255-0.415-0.608-0.415-0.998c0-0.496-0.403-0.897-0.897-0.897h-1.89c-0.247,0-0.472,0.1-0.634,0.263
		c-0.163,0.162-0.263,0.386-0.263,0.634c0,0.78-0.632,1.411-1.413,1.411l0,0c-0.495,0-0.897,0.402-0.897,0.897v1.889
		c0,0.496,0.403,0.898,0.897,0.898l0,0c0.391,0,0.744,0.158,1,0.413s0.414,0.609,0.414,0.999c0,0.496,0.402,0.897,0.896,0.897h1.89
		c0.248,0,0.472-0.101,0.634-0.263c0.163-0.163,0.264-0.387,0.264-0.634c0-0.39,0.158-0.743,0.415-0.999
		c0.255-0.255,0.607-0.413,0.997-0.413c0.497,0,0.898-0.403,0.898-0.898v-1.889C67.217,11.535,67.117,11.312,66.954,11.149z
		 M63.065,14.856c-1.175,0-2.129-0.953-2.129-2.128s0.954-2.129,2.129-2.129c1.176,0,2.129,0.953,2.129,2.129
		S64.241,14.856,63.065,14.856z"/>
</g>
<g>
	<circle fill="#2BA9AB" cx="63.065" cy="12.728" r="1.952"/>
</g>
<g>
	<g>
		<path fill="#FFFFFF" d="M64.216,12.471v0.513c0,0.125-0.101,0.226-0.225,0.226h-0.445v0.443c0,0.125-0.101,0.226-0.225,0.226
			h-0.515c-0.124,0-0.225-0.101-0.225-0.226V13.21h-0.444c-0.125,0-0.225-0.101-0.225-0.226v-0.513c0-0.125,0.1-0.225,0.225-0.225
			h0.444v-0.445c0-0.125,0.101-0.225,0.225-0.225h0.515c0.124,0,0.225,0.101,0.225,0.225v0.445h0.445
			C64.116,12.246,64.216,12.346,64.216,12.471z"/>
	</g>
</g>
<g>
	<g>
		<circle fill="#23A552" cx="63.065" cy="5.958" r="2.026"/>
	</g>
</g>
<g>
	<path fill="#175E8E" d="M5.121,53.36h7.726v2.52H11.08v-0.82h-0.658v4.666h0.719v1.701H6.827v-1.701h0.719V55.06H6.888v0.82H5.121
		V53.36z"/>
	<path fill="#175E8E" d="M24.488,57.394c0,0.759-0.093,1.404-0.278,1.933c-0.185,0.529-0.447,0.959-0.786,1.291
		c-0.339,0.332-0.751,0.575-1.238,0.726c-0.486,0.152-1.027,0.228-1.623,0.228c-0.596,0-1.137-0.076-1.623-0.228
		c-0.487-0.151-0.899-0.395-1.238-0.726c-0.339-0.332-0.601-0.762-0.786-1.291c-0.185-0.528-0.278-1.173-0.278-1.933
		c0-0.753,0.093-1.396,0.278-1.929c0.185-0.531,0.446-0.964,0.786-1.296c0.339-0.333,0.751-0.573,1.238-0.726
		c0.486-0.151,1.027-0.228,1.623-0.228c0.596,0,1.137,0.077,1.623,0.228c0.487,0.153,0.899,0.394,1.238,0.726
		c0.339,0.332,0.601,0.765,0.786,1.296C24.396,55.997,24.488,56.641,24.488,57.394z M20.563,59.726c0.233,0,0.408-0.061,0.524-0.182
		c0.117-0.12,0.175-0.316,0.175-0.585v-3.131c0-0.269-0.058-0.465-0.175-0.585c-0.116-0.12-0.291-0.182-0.524-0.182
		s-0.408,0.062-0.524,0.182c-0.117,0.12-0.175,0.316-0.175,0.585v3.131c0,0.27,0.058,0.465,0.175,0.585
		C20.155,59.665,20.33,59.726,20.563,59.726z"/>
	<path fill="#175E8E" d="M35.923,55.06l-1.099,2.24l1.202,2.426h0.411v1.701H33.17l-0.864-2.635h-0.205l-0.863,2.635h-2.856v-1.701
		h0.411l1.192-2.416l-1.099-2.25h-0.411v-1.7h3.267l0.76,2.406h0.206l0.771-2.406h2.856v1.7H35.923z"/>
	<path fill="#175E8E" d="M40.701,53.36h4.109v1.7h-0.616v4.666h0.616v1.701h-4.109v-1.701h0.616V55.06h-0.616V53.36z"/>
	<path fill="#175E8E" d="M53.533,58.119h2.466v2.684c-0.137,0.084-0.303,0.172-0.499,0.266c-0.195,0.092-0.421,0.175-0.678,0.248
		c-0.257,0.072-0.549,0.134-0.874,0.181c-0.325,0.049-0.69,0.073-1.094,0.073c-0.603,0-1.147-0.076-1.634-0.228
		c-0.486-0.151-0.9-0.395-1.243-0.726c-0.343-0.332-0.606-0.762-0.791-1.291c-0.185-0.528-0.278-1.173-0.278-1.933
		c0-0.753,0.093-1.396,0.278-1.929c0.185-0.531,0.446-0.964,0.786-1.296c0.339-0.333,0.751-0.573,1.238-0.726
		c0.486-0.151,1.028-0.228,1.624-0.228c0.411,0,0.777,0.025,1.099,0.073s0.611,0.109,0.868,0.181
		c0.257,0.073,0.483,0.156,0.679,0.249c0.195,0.093,0.367,0.182,0.519,0.264v2.593h-2.466v-0.747c0-0.269-0.059-0.465-0.175-0.585
		c-0.116-0.12-0.291-0.182-0.523-0.182c-0.233,0-0.408,0.062-0.524,0.182c-0.117,0.12-0.175,0.316-0.175,0.585v3.131
		c0,0.27,0.058,0.465,0.175,0.585c0.116,0.121,0.291,0.182,0.524,0.182c0.232,0,0.407-0.061,0.523-0.182
		c0.117-0.12,0.175-0.316,0.175-0.585V58.119z"/>
	<path fill="#175E8E" d="M68.235,57.394c0,0.759-0.092,1.404-0.277,1.933c-0.185,0.529-0.447,0.959-0.787,1.291
		c-0.338,0.332-0.75,0.575-1.238,0.726c-0.486,0.152-1.026,0.228-1.623,0.228c-0.595,0-1.137-0.076-1.623-0.228
		c-0.486-0.151-0.899-0.395-1.238-0.726c-0.339-0.332-0.601-0.762-0.786-1.291c-0.185-0.528-0.278-1.173-0.278-1.933
		c0-0.753,0.093-1.396,0.278-1.929c0.185-0.531,0.447-0.964,0.786-1.296c0.339-0.333,0.752-0.573,1.238-0.726
		c0.486-0.151,1.028-0.228,1.623-0.228c0.597,0,1.137,0.077,1.623,0.228c0.488,0.153,0.9,0.394,1.238,0.726
		c0.34,0.332,0.602,0.765,0.787,1.296C68.143,55.997,68.235,56.641,68.235,57.394z M64.311,59.726c0.233,0,0.407-0.061,0.524-0.182
		c0.117-0.12,0.174-0.316,0.174-0.585v-3.131c0-0.269-0.057-0.465-0.174-0.585c-0.117-0.12-0.292-0.182-0.524-0.182
		s-0.408,0.062-0.525,0.182c-0.115,0.12-0.174,0.316-0.174,0.585v3.131c0,0.27,0.059,0.465,0.174,0.585
		C63.903,59.665,64.078,59.726,64.311,59.726z"/>
	<path fill="#175E8E" d="M72.417,53.36h4.438v1.7H75.91v4.666h0.925v-0.954h2.044v2.655h-6.462v-1.701h0.616V55.06h-0.616V53.36z"/>
	<path fill="#175E8E" d="M90.663,57.394c0,0.759-0.092,1.404-0.276,1.933c-0.185,0.529-0.448,0.959-0.787,1.291
		c-0.339,0.332-0.752,0.575-1.237,0.726c-0.487,0.152-1.029,0.228-1.624,0.228c-0.596,0-1.137-0.076-1.624-0.228
		c-0.486-0.151-0.899-0.395-1.238-0.726c-0.338-0.332-0.601-0.762-0.785-1.291c-0.186-0.528-0.278-1.173-0.278-1.933
		c0-0.753,0.092-1.396,0.278-1.929c0.184-0.531,0.447-0.964,0.785-1.296c0.339-0.333,0.752-0.573,1.238-0.726
		c0.487-0.151,1.028-0.228,1.624-0.228c0.595,0,1.137,0.077,1.624,0.228c0.485,0.153,0.898,0.394,1.237,0.726
		c0.339,0.332,0.602,0.765,0.787,1.296C90.571,55.997,90.663,56.641,90.663,57.394z M86.74,59.726c0.232,0,0.407-0.061,0.523-0.182
		c0.116-0.12,0.175-0.316,0.175-0.585v-3.131c0-0.269-0.059-0.465-0.175-0.585s-0.291-0.182-0.523-0.182
		c-0.234,0-0.409,0.062-0.525,0.182c-0.116,0.12-0.174,0.316-0.174,0.585v3.131c0,0.27,0.058,0.465,0.174,0.585
		C86.331,59.665,86.506,59.726,86.74,59.726z"/>
	<path fill="#175E8E" d="M99.058,57.289h3.637v1.545h-0.513v2.075c-0.158,0.076-0.341,0.153-0.55,0.232
		c-0.209,0.08-0.448,0.15-0.721,0.212c-0.269,0.063-0.573,0.114-0.908,0.157c-0.335,0.041-0.709,0.062-1.12,0.062
		c-0.616,0-1.17-0.076-1.663-0.228c-0.494-0.151-0.913-0.395-1.26-0.726c-0.345-0.332-0.611-0.762-0.796-1.291
		c-0.185-0.528-0.278-1.173-0.278-1.933c0-0.753,0.093-1.396,0.278-1.929c0.185-0.531,0.449-0.964,0.791-1.296
		c0.343-0.333,0.761-0.573,1.255-0.726c0.492-0.151,1.043-0.228,1.652-0.228c0.418,0,0.797,0.022,1.136,0.063
		c0.339,0.042,0.645,0.096,0.913,0.161c0.272,0.066,0.512,0.139,0.721,0.219c0.209,0.079,0.392,0.156,0.55,0.232v2.478h-2.569V55.88
		c0-0.297-0.06-0.509-0.179-0.633c-0.12-0.125-0.311-0.187-0.571-0.187c-0.26,0-0.45,0.062-0.57,0.187
		c-0.118,0.125-0.179,0.336-0.179,0.633v3.027c0,0.297,0.061,0.508,0.179,0.633c0.12,0.124,0.311,0.186,0.57,0.186
		c0.261,0,0.451-0.062,0.571-0.186c0.119-0.125,0.179-0.336,0.179-0.633v-0.073h-0.555V57.289z"/>
	<path fill="#175E8E" d="M110.596,55.06h-0.359l0.605,1.814h0.104l0.605-1.814h-0.358v-1.7h3.103v1.7h-0.36l-1.982,3.586v1.079
		h0.616v1.701h-4.109v-1.701h0.616v-1.079l-2.044-3.586h-0.37v-1.7h3.935V55.06z"/>
</g>
</svg>
