<?xml version="1.0" encoding="utf-8"?>
<!-- Generator: Adobe Illustrator 16.0.0, SVG Export Plug-In . SVG Version: 6.00 Build 0)  -->
<!DOCTYPE svg PUBLIC "-//W3C//DTD SVG 1.1//EN" "http://www.w3.org/Graphics/SVG/1.1/DTD/svg11.dtd">
<svg version="1.1" id="Layer_1" xmlns="http://www.w3.org/2000/svg" xmlns:xlink="http://www.w3.org/1999/xlink" x="0px" y="0px"
	 width="75px" height="75px" viewBox="0 0 75 75" enable-background="new 0 0 75 75" xml:space="preserve">
<path fill-rule="evenodd" clip-rule="evenodd" fill="#175E8E" d="M71.362,54.223c-0.325,0.725-0.332,1.521-0.507,2.279
	c-1.71,7.438-8.076,13.291-15.622,14.334c-10.227,1.414-19.476-5.16-21.375-15.29c-0.956-5.097,0.114-9.831,3.022-14.131
	c0.25-0.369,0.359-0.72,0.358-1.158c-0.01-5.707-0.008-11.413-0.005-17.12c0-0.507-0.059-1.031,0.136-1.51
	c0.218-0.539-0.041-0.757-0.478-0.99c-2.362-1.256-4.689-1.208-7.01,0.103c-0.295,0.167-0.489,0.304-0.336,0.7
	c0.185,0.479,0.173,0.998,0.173,1.507c0,3.428,0,6.856,0,10.285c0,0.155,0.003,0.311-0.017,0.463
	c-0.066,0.512-0.394,0.799-0.875,0.85c-0.489,0.052-0.84-0.198-1.024-0.668c-0.101-0.257-0.075-0.523-0.075-0.787
	c-0.001-3.273-0.001-6.547-0.001-9.82c0-0.237,0-0.474,0-0.861c-1.346,1.333-2.159,2.807-2.678,4.461
	c-0.368,1.173-0.414,2.387-0.51,3.599c-0.093,1.176-0.763,1.969-1.856,2.35c-1.105,0.385-2.097,0.098-2.914-0.728
	c-0.557-0.564-0.755-1.271-0.748-2.059c0.033-3.625,1.102-6.904,3.246-9.83c0.101-0.138,0.258-0.244,0.272-0.48
	c-1.757,0.391-3.241,1.27-4.588,2.399c-2.724,2.286-4.66,5.184-6.276,8.299c-2.936,5.66-4.927,11.647-5.971,17.94
	c-0.195,1.176-0.309,2.367-0.303,3.565c0.013,2.389,0.016,4.777,0.032,7.166c0.009,1.431,0.755,2.41,1.962,3.069
	c0.52,0.284,1.089,0.358,1.665,0.133c4.455-1.746,8.922-3.469,13.029-5.972c1.667-1.016,3.247-2.148,4.381-3.787
	c0.825-1.193,1.277-2.492,1.266-3.967c-0.026-3.34-0.009-6.68-0.007-10.02c0-0.264-0.024-0.529,0.072-0.787
	c0.178-0.476,0.52-0.708,1.021-0.667c0.503,0.042,0.805,0.336,0.879,0.834c0.033,0.217,0.02,0.441,0.02,0.662
	c0.001,3.097-0.087,6.196,0.024,9.289c0.123,3.437-1.323,6.057-3.867,8.178c-2.55,2.126-5.504,3.576-8.498,4.948
	c-2.305,1.057-4.708,1.888-7.01,2.939c-3.165,1.445-6-1.02-6.692-3.248c-0.067-0.216-0.026-0.488-0.265-0.636
	c0-0.089,0-0.177,0-0.266c0.284-0.691,0.064-1.409,0.111-2.113c0.003-0.752,0.006-1.504,0.009-2.256
	C3.49,54.805,3.68,54.167,3.41,53.559c0-1.149,0-2.3,0-3.45c0.318-0.982,0.328-2.018,0.522-3.021
	c1.49-7.668,3.958-14.959,8.347-21.495c1.879-2.797,4.117-5.25,7.168-6.834c1.556-0.807,3.208-1.23,4.958-1.254
	c0.306-0.004,0.542-0.08,0.783-0.271c1.505-1.188,3.163-2.089,5.024-2.581c0.394-0.104,0.5-0.3,0.498-0.697
	c-0.018-2.764-0.01-5.528-0.009-8.292c0-1.172,0.284-1.458,1.432-1.46c0.951-0.001,1.902-0.005,2.853,0.001
	c0.906,0.005,1.259,0.341,1.273,1.227c0.013,0.818,0.019,1.637-0.003,2.455c-0.018,0.699-0.388,1.086-0.982,1.093
	c-0.601,0.007-0.968-0.377-1.008-1.069c-0.015-0.264-0.003-0.53-0.004-0.796c-0.002-0.481,0.164-1.021-0.701-0.938
	c-0.86,0.084-0.866,0.018-0.866,0.899c0,2.632,0.003,5.263-0.002,7.895c-0.001,0.911-0.211,1.162-1.098,1.368
	c-5.456,1.269-9.668,5.927-10.413,11.493c-0.097,0.726-0.14,1.451-0.166,2.18c-0.02,0.541,0.187,0.943,0.759,0.958
	c0.575,0.015,0.799-0.387,0.808-0.921c0.033-1.946,0.391-3.828,1.269-5.571c1.802-3.576,4.544-5.992,8.59-6.671
	c1.977-0.332,3.833,0.187,5.529,1.175c4.091,2.384,6.122,6.03,6.389,10.711c0.009,0.154,0.014,0.309,0.02,0.464
	c0.02,0.498,0.285,0.813,0.772,0.814c0.531,0.001,0.785-0.352,0.787-0.87c0.03-7.18-4.994-12.563-10.433-13.727
	c-1.095-0.234-1.242-0.427-1.243-1.58c0-0.73-0.015-1.46,0.007-2.189c0.02-0.662,0.438-1.098,0.999-1.093s0.961,0.438,0.989,1.106
	c0.019,0.464,0.036,0.931-0.004,1.392c-0.034,0.395,0.137,0.531,0.486,0.628c1.852,0.516,3.515,1.406,5.025,2.587
	c0.192,0.15,0.375,0.277,0.647,0.276c2.994-0.01,5.522,1.189,7.792,3.039c0.996,0.813,1.889,1.733,2.717,2.716
	c0.563,0.67,0.6,1.268,0.099,1.679c-0.484,0.398-1.033,0.275-1.587-0.37c-1.568-1.829-3.313-3.435-5.574-4.378
	c-0.406-0.169-0.812-0.347-1.258-0.389c-0.058-0.013-0.114-0.027-0.171-0.04c0.016,0.051,0.032,0.103,0.048,0.154
	c2.248,2.963,3.395,6.306,3.461,10.023c0.03,1.692-1.079,2.966-2.662,3.04c-1.572,0.072-2.804-1.122-2.891-2.804
	c-0.039-0.75-0.087-1.499-0.222-2.241c-0.363-2.004-1.553-4.265-2.853-5.39c-0.108,0.524-0.151,14.792-0.042,15.993
	c5.014-4.571,10.836-6.166,17.452-4.853c0.126-0.241-0.053-0.397-0.125-0.557c-0.697-1.549-1.464-3.063-2.339-4.521
	c-0.426-0.71-0.327-1.281,0.241-1.601c0.551-0.31,1.049-0.118,1.466,0.579c1.236,2.066,2.283,4.227,3.193,6.454
	c0.13,0.319,0.303,0.534,0.641,0.687c6.503,2.94,10.302,7.948,11.417,14.996c0.021,0.135-0.072,0.324,0.146,0.39
	C71.362,51.479,71.362,52.852,71.362,54.223z M52.473,35.228c-9.346-0.011-16.927,7.538-16.942,16.871
	c-0.016,9.354,7.592,16.979,16.933,16.97c9.321-0.01,16.903-7.6,16.908-16.927C69.375,42.807,61.814,35.239,52.473,35.228z"/>
<path fill-rule="evenodd" clip-rule="evenodd" fill="#175E8E" d="M3.531,55.428c-0.003,0.752-0.006,1.504-0.009,2.256
	c-0.037-0.004-0.074-0.008-0.111-0.011c0-0.752,0-1.504,0-2.256C3.451,55.418,3.491,55.422,3.531,55.428z"/>
<path fill-rule="evenodd" clip-rule="evenodd" fill="#175E8E" d="M3.41,57.673c0.037,0.003,0.074,0.007,0.111,0.011
	c-0.047,0.704,0.172,1.422-0.111,2.113C3.41,59.089,3.41,58.381,3.41,57.673z"/>
<path fill-rule="evenodd" clip-rule="evenodd" fill="#175E8E" d="M3.531,55.428c-0.04-0.006-0.08-0.01-0.121-0.011
	c0-0.619,0-1.238,0-1.858C3.68,54.167,3.49,54.805,3.531,55.428z"/>
<path fill-rule="evenodd" clip-rule="evenodd" fill="#175E8E" d="M44.479,19.913c-0.016-0.051-0.032-0.103-0.048-0.154
	c0.057,0.013,0.113,0.027,0.171,0.04C44.561,19.837,44.52,19.875,44.479,19.913z"/>
<path fill-rule="evenodd" clip-rule="evenodd" fill="#175E8E" d="M63.375,59.456c-0.508-0.033-0.912-0.41-1.368-0.664
	c-0.274-0.153-0.42-0.173-0.63,0.119c-0.595,0.831-1.318,1.551-2.146,2.15c-0.278,0.201-0.309,0.354-0.122,0.625
	c0.198,0.29,0.372,0.602,0.527,0.917c0.266,0.54,0.095,1.117-0.383,1.374c-0.454,0.244-1.006,0.092-1.324-0.384
	c-0.268-0.399-0.438-1.03-0.795-1.157c-0.353-0.125-0.881,0.263-1.339,0.406c-0.61,0.191-1.232,0.372-1.872,0.397
	c-0.436,0.017-0.512,0.209-0.482,0.578c0.025,0.33,0.021,0.664-0.001,0.995c-0.038,0.582-0.427,0.961-0.968,0.971
	c-0.542,0.01-0.942-0.363-1.015-0.929c-0.066-0.517,0.245-1.186-0.146-1.514c-0.334-0.282-0.972-0.184-1.463-0.303
	c-0.513-0.124-1.049-0.236-1.506-0.482c-0.546-0.293-0.773-0.091-0.987,0.372c-0.129,0.279-0.279,0.558-0.473,0.794
	c-0.338,0.412-0.796,0.49-1.249,0.232c-0.452-0.257-0.616-0.675-0.435-1.189c0.021-0.063,0.044-0.125,0.075-0.184
	c0.223-0.424,0.684-0.896,0.607-1.255c-0.08-0.376-0.683-0.634-1.045-0.956c-0.497-0.441-0.946-0.934-1.327-1.477
	c-0.182-0.261-0.322-0.292-0.577-0.124c-0.312,0.206-0.636,0.4-0.973,0.563c-0.521,0.252-1.063,0.091-1.328-0.364
	c-0.269-0.461-0.137-0.993,0.331-1.336c0.018-0.014,0.036-0.025,0.054-0.038c0.396-0.274,1.049-0.37,1.16-0.795
	c0.097-0.365-0.271-0.846-0.416-1.281c-0.201-0.608-0.368-1.229-0.408-1.871c-0.024-0.382-0.155-0.554-0.567-0.511
	c-0.35,0.036-0.709,0.029-1.059-0.009c-0.577-0.063-0.938-0.482-0.922-1.02c0.015-0.55,0.388-0.911,0.979-0.953
	c0.48-0.035,1.108,0.203,1.4-0.1c0.282-0.292,0.203-0.916,0.326-1.382c0.151-0.575,0.288-1.166,0.543-1.696
	c0.235-0.49,0.075-0.703-0.339-0.899c-0.258-0.123-0.508-0.27-0.743-0.432c-0.478-0.33-0.61-0.868-0.349-1.332
	c0.256-0.456,0.804-0.615,1.32-0.382c0.459,0.205,0.897,0.762,1.323,0.63c0.41-0.126,0.659-0.731,1.014-1.092
	c0.402-0.408,0.809-0.829,1.278-1.149c0.429-0.292,0.402-0.54,0.146-0.9c-0.166-0.233-0.308-0.485-0.434-0.742
	c-0.271-0.551-0.114-1.103,0.37-1.374c0.474-0.265,0.972-0.126,1.328,0.358c0.295,0.401,0.371,1.094,0.841,1.188
	c0.405,0.082,0.892-0.308,1.357-0.432c0.639-0.169,1.288-0.303,1.939-0.411c0.277-0.046,0.369-0.142,0.354-0.417
	c-0.022-0.374-0.021-0.752,0.001-1.127c0.034-0.573,0.438-0.973,0.964-0.988c0.55-0.017,0.98,0.398,1.017,1.003
	c0.029,0.483-0.145,1.12,0.102,1.407c0.245,0.287,0.905,0.202,1.372,0.322c0.554,0.142,1.126,0.268,1.636,0.514
	c0.534,0.259,0.788,0.107,0.997-0.381c0.111-0.262,0.262-0.514,0.437-0.739c0.341-0.439,0.792-0.578,1.285-0.284
	c0.478,0.285,0.62,0.724,0.412,1.255c-0.016,0.041-0.036,0.08-0.056,0.12c-0.206,0.432-0.715,0.845-0.602,1.261
	c0.101,0.369,0.657,0.607,0.999,0.918c0.459,0.417,0.917,0.845,1.249,1.368c0.274,0.432,0.527,0.425,0.897,0.145
	c0.244-0.184,0.527-0.321,0.804-0.456c0.519-0.252,0.954-0.11,1.273,0.346c0.309,0.442,0.184,0.997-0.269,1.348
	c-0.41,0.317-1.148,0.393-1.232,0.878c-0.078,0.454,0.326,0.979,0.466,1.486c0.146,0.53,0.273,1.073,0.326,1.618
	c0.044,0.463,0.231,0.604,0.669,0.555c0.306-0.033,0.619-0.017,0.928-0.001c0.569,0.028,0.905,0.339,0.953,0.902
	c0.049,0.572-0.268,0.907-0.801,1.055c-0.084,0.022-0.175,0.02-0.263,0.028c-0.455,0.044-1.052-0.204-1.33,0.109
	c-0.264,0.296-0.201,0.876-0.298,1.327c-0.14,0.647-0.326,1.283-0.605,1.885c-0.136,0.293-0.116,0.466,0.199,0.617
	c0.356,0.171,0.703,0.376,1.021,0.61c0.374,0.276,0.496,0.666,0.33,1.117C64.186,59.23,63.867,59.43,63.375,59.456z M52.468,42.926
	c-5.113-0.008-9.239,4.105-9.24,9.211c0,5.088,4.157,9.243,9.239,9.235c5.054-0.008,9.196-4.147,9.206-9.201
	C61.684,47.058,57.577,42.933,52.468,42.926z"/>
<path fill-rule="evenodd" clip-rule="evenodd" fill="#175E8E" d="M48.396,54.804c0.019,0.332,0.04,0.668-0.175,0.951
	c-0.261,0.342-0.607,0.511-1.037,0.399c-0.45-0.116-0.721-0.422-0.764-0.885c-0.06-0.635-0.108-1.271-0.127-1.907
	c-0.019-0.647,0.384-1.096,0.955-1.119c0.563-0.023,0.975,0.396,1.029,1.05c0.021,0.263,0.037,0.525,0.057,0.789
	C48.354,54.322,48.376,54.563,48.396,54.804z"/>
<path fill-rule="evenodd" clip-rule="evenodd" fill="#175E8E" d="M54.234,58.604c-0.582-0.12-1.28-0.236-1.961-0.417
	c-0.537-0.142-0.827-0.689-0.667-1.199c0.167-0.533,0.562-0.796,1.115-0.713c0.654,0.099,1.306,0.226,1.947,0.385
	c0.569,0.142,0.851,0.534,0.776,1.134C55.38,58.318,54.937,58.64,54.234,58.604z"/>
<path fill-rule="evenodd" clip-rule="evenodd" fill="#175E8E" d="M52.674,50.084c0.765,0.015,1.256,0.713,0.94,1.347
	c-0.331,0.668-0.728,1.312-1.16,1.921c-0.304,0.427-0.782,0.49-1.243,0.23c-0.433-0.244-0.634-0.657-0.44-1.123
	c0.313-0.753,0.769-1.434,1.255-2.088C52.192,50.146,52.455,50.072,52.674,50.084z"/>
<path fill-rule="evenodd" clip-rule="evenodd" fill="#175E8E" d="M56.917,54.401c-0.651-0.013-1.013-0.25-1.122-0.781
	c-0.107-0.526,0.106-0.939,0.603-1.108c0.665-0.226,1.351-0.404,2.04-0.545c0.573-0.117,0.993,0.132,1.157,0.719
	c0.145,0.517-0.117,0.991-0.691,1.173C58.212,54.076,57.505,54.243,56.917,54.401z"/>
<path fill-rule="evenodd" clip-rule="evenodd" fill="#175E8E" d="M50.54,47.302c0.015,0.421-0.185,0.731-0.548,0.906
	c-0.595,0.286-1.196,0.56-1.812,0.796c-0.571,0.221-1.126-0.021-1.329-0.524c-0.206-0.512,0.012-1.029,0.58-1.302
	c0.556-0.267,1.115-0.527,1.689-0.747C49.859,46.147,50.527,46.573,50.54,47.302z"/>
<path fill-rule="evenodd" clip-rule="evenodd" fill="#175E8E" d="M56.963,48.11c-0.024,0.804-0.832,1.316-1.423,0.917
	c-0.713-0.481-1.289-1.143-1.787-1.841c-0.263-0.369-0.155-0.817,0.188-1.145c0.362-0.346,0.821-0.435,1.204-0.119
	c0.629,0.518,1.189,1.118,1.687,1.767C56.93,47.818,56.937,48.02,56.963,48.11z"/>
</svg>
