<?xml version="1.0" encoding="utf-8"?>
<!-- Generator: Adobe Illustrator 16.0.0, SVG Export Plug-In . SVG Version: 6.00 Build 0)  -->
<!DOCTYPE svg PUBLIC "-//W3C//DTD SVG 1.1//EN" "http://www.w3.org/Graphics/SVG/1.1/DTD/svg11.dtd">
<svg version="1.1" id="Layer_1" xmlns="http://www.w3.org/2000/svg" xmlns:xlink="http://www.w3.org/1999/xlink" x="0px" y="0px"
	 width="75px" height="75px" viewBox="0 0 75 75" enable-background="new 0 0 75 75" xml:space="preserve">
<path fill-rule="evenodd" clip-rule="evenodd" fill="#175E8E" d="M7.782,37.69c0-7.414-0.005-14.828,0.003-22.242
	c0.004-3.582,2.196-6.322,5.573-6.966c0.538-0.103,1.102-0.104,1.653-0.104C21.27,8.372,27.528,8.38,33.787,8.366
	c0.54-0.001,0.953,0.148,1.365,0.5c4.926,4.198,9.852,8.397,14.818,12.549c0.773,0.646,0.526,1.42,0.612,2.17
	c0.037,0.331-0.024,0.671-0.024,1.008c-0.001,11.699-0.002,23.397,0,35.097c0.001,1.329-0.082,2.64-0.614,3.887
	c-0.765,1.787-2.069,2.925-3.984,3.295c-0.367,0.071-0.509,0.208-0.616,0.542c-0.664,2.066-2.244,3.252-4.409,3.267
	c-3.009,0.021-6.018,0.023-9.027-0.008c-1.905-0.021-3.564-1.22-4.144-3.024c-0.184-0.574-0.455-0.649-0.97-0.646
	c-4.02,0.019-8.04,0.023-12.06,0.007c-3.362-0.015-6.01-2.094-6.769-5.284c-0.157-0.657-0.184-1.332-0.184-2.008
	C7.783,52.374,7.782,45.032,7.782,37.69z M48.918,22.693c0.041-0.058,0.081-0.116,0.121-0.174c-0.103-0.058-0.219-0.101-0.308-0.175
	c-4.79-4.061-9.581-8.121-14.361-12.193c-0.285-0.242-0.569-0.3-0.918-0.299c-6.21,0.006-12.42,0.001-18.63,0.006
	c-3.295,0.002-5.528,2.21-5.53,5.516c-0.009,14.875-0.01,29.751,0,44.626c0.002,3.31,2.21,5.498,5.53,5.51
	c3.996,0.014,7.992-0.011,11.987,0.019c0.599,0.004,0.701-0.191,0.698-0.732c-0.02-4.525-0.023-9.051,0.003-13.576
	c0.003-0.607-0.103-0.807-0.77-0.801c-4.26,0.037-8.521,0.019-12.781,0.019c-0.192,0-0.388,0.017-0.577-0.011
	c-0.439-0.065-0.713-0.333-0.691-0.777c0.021-0.401,0.274-0.659,0.701-0.686c0.216-0.014,0.433-0.013,0.649-0.013
	c4.116-0.001,8.232-0.001,12.348-0.001c1.106,0,1.08-0.001,1.112-1.101c0.041-1.391-0.211-2.805,0.193-4.164
	c0.176-0.591,0.044-0.652-0.502-0.649c-4.381,0.02-8.762,0.011-13.143,0.011c-0.981,0-1.429-0.235-1.362-0.773
	c0.1-0.815,0.752-0.736,1.331-0.736c4.79-0.001,9.58,0,14.37-0.003c0.306-0.001,0.614,0.048,0.897-0.169
	c0.786-0.603,1.678-0.929,2.676-0.908c0.319,0.006,0.421-0.121,0.415-0.425c-0.013-0.602-0.018-1.204,0.002-1.805
	c0.01-0.315-0.094-0.456-0.407-0.55c-0.75-0.227-1.352-0.702-1.597-1.447c-0.177-0.535-0.472-0.603-0.951-0.602
	c-5.127,0.013-10.254,0.008-15.381,0.007c-0.217,0-0.434,0.003-0.649-0.013c-0.421-0.032-0.681-0.281-0.703-0.687
	c-0.024-0.449,0.255-0.711,0.689-0.78c0.211-0.033,0.432-0.016,0.648-0.016c5.223,0,10.447-0.005,15.67,0.008
	c0.419,0.001,0.683-0.082,0.924-0.473c0.442-0.718,1.158-1.109,1.996-1.118c2.599-0.028,5.199-0.033,7.799,0
	c1.137,0.015,2.132,0.887,2.4,1.963c0.283,1.136-0.151,2.55-1.238,2.861c-1.26,0.361-1.057,1.154-1.054,2
	c0.001,0.169,0.019,0.34-0.003,0.505c-0.057,0.425,0.078,0.563,0.541,0.579c2.578,0.087,4.401,1.921,4.479,4.511
	c0.047,1.587,0.027,3.177,0.026,4.765c-0.003,5.055-0.003,10.108-0.027,15.162c-0.003,0.532,0.194,0.539,0.589,0.41
	c0.961-0.313,1.683-0.915,2.172-1.79c0.591-1.057,0.769-2.207,0.769-3.404c-0.005-11.771-0.008-23.541,0.012-35.311
	c0.001-0.561-0.161-0.658-0.68-0.655c-4.55,0.021-9.099,0.013-13.648,0.012c-1.084,0-1.219-0.13-1.22-1.197
	c-0.002-3.105-0.001-6.21,0-9.315c0-0.192-0.002-0.387,0.027-0.576c0.06-0.386,0.309-0.598,0.689-0.613
	c0.388-0.015,0.639,0.21,0.733,0.571c0.053,0.204,0.04,0.429,0.04,0.644c0.002,2.816,0.01,5.633-0.007,8.449
	c-0.002,0.421,0.078,0.578,0.546,0.576C40.016,22.685,44.467,22.693,48.918,22.693z M28.974,55.563
	c0,3.515-0.009,7.029,0.004,10.544c0.006,1.726,1.265,3.073,2.962,3.095c3.057,0.037,6.114,0.039,9.171-0.002
	c1.62-0.021,2.844-1.303,2.899-2.908c0.024-0.697-0.009-1.397,0.047-2.092c0.042-0.52-0.14-0.63-0.634-0.625
	c-2.479,0.026-4.959,0.015-7.439,0.012c-2.022-0.003-3.053-1.039-3.056-3.075c-0.003-2.889-0.003-5.777,0-8.666
	c0.002-2.043,1.016-3.053,3.062-3.055c2.455-0.002,4.911-0.021,7.365,0.015c0.592,0.009,0.724-0.177,0.702-0.726
	c-0.044-1.106,0.012-2.216-0.036-3.321c-0.057-1.314-0.938-2.344-2.205-2.722c-0.546-0.163-1.098-0.104-1.647-0.112
	c-0.951-0.017-1.12-0.179-1.124-1.151c-0.003-0.794-0.031-1.59,0.011-2.382c0.026-0.501-0.164-0.606-0.621-0.598
	c-1.348,0.026-2.697,0.024-4.044,0c-0.4-0.007-0.546,0.092-0.531,0.514c0.031,0.865,0.018,1.733,0.007,2.6
	c-0.009,0.754-0.253,0.995-0.987,1.013c-0.192,0.005-0.385,0-0.578,0.001c-2.082,0.008-3.325,1.241-3.328,3.314
	C28.971,48.678,28.974,52.12,28.974,55.563z M44.047,56.15c0-1.731-0.029-3.464,0.017-5.194c0.016-0.596-0.185-0.696-0.723-0.69
	c-2.452,0.027-4.905,0.01-7.358,0.013c-1.199,0.002-1.547,0.346-1.548,1.533c-0.003,2.886-0.002,5.772,0,8.658
	c0.001,1.289,0.34,1.634,1.611,1.636c2.429,0.003,4.858-0.016,7.287,0.013c0.546,0.006,0.745-0.107,0.73-0.702
	C44.02,59.662,44.047,57.905,44.047,56.15z M36.483,36.317c1.202,0,2.404,0.009,3.605-0.003c0.818-0.008,1.302-0.429,1.317-1.11
	c0.017-0.705-0.486-1.179-1.333-1.185c-2.379-0.014-4.759-0.014-7.138,0.001c-0.816,0.005-1.361,0.527-1.331,1.201
	c0.031,0.667,0.533,1.086,1.346,1.094C34.127,36.325,35.305,36.317,36.483,36.317z"/>
<path fill-rule="evenodd" clip-rule="evenodd" fill="#175E8E" d="M59.225,70.688c-1.757,0-3.514,0.005-5.271-0.002
	c-0.83-0.003-1.013-0.191-1.019-1.025c-0.006-0.914-0.006-1.829,0-2.743c0.006-0.874,0.172-1.032,1.076-1.036
	c0.842-0.005,1.685-0.018,2.526,0.006c0.366,0.011,0.509-0.081,0.501-0.475c-0.022-1.18-0.026-2.359,0.004-3.538
	c0.01-0.41-0.155-0.466-0.502-0.46c-1.083,0.017-2.166,0.015-3.249,0.004c-1.33-0.014-2.344-0.981-2.35-2.226
	s1.006-2.221,2.33-2.249c1.292-0.028,1.292-0.028,1.292-1.313c0-11.021,0-22.043,0.003-33.064c0-1.372,0.021-2.743,0.37-4.084
	c0.433-1.666,1.361-2.852,3.136-3.183c0.426-0.08,0.441-0.319,0.44-0.662c-0.01-2.551-0.006-5.102-0.004-7.652
	c0-0.24-0.005-0.483,0.033-0.719c0.061-0.379,0.297-0.595,0.689-0.608c0.396-0.013,0.639,0.204,0.731,0.566
	c0.053,0.205,0.042,0.429,0.043,0.644c0.002,2.575,0.014,5.15-0.01,7.725c-0.004,0.466,0.113,0.655,0.593,0.759
	c1.449,0.313,2.306,1.293,2.774,2.657c0.519,1.509,0.496,3.079,0.497,4.64c0.01,11.166,0.012,22.332-0.011,33.498
	c-0.001,0.655,0.157,0.873,0.815,0.807c1.177-0.118,2.158,0.232,2.657,1.4c0.608,1.428-0.448,3.018-2.034,3.061
	c-1.106,0.029-2.215,0.025-3.32-0.004c-0.417-0.011-0.521,0.122-0.513,0.523c0.026,1.154,0.022,2.31,0.002,3.465
	c-0.007,0.371,0.094,0.502,0.481,0.49c0.914-0.027,1.829,0.001,2.743-0.013c0.607-0.009,0.885,0.278,0.883,0.873
	c-0.003,1.011-0.008,2.021,0.002,3.032c0.005,0.636-0.298,0.914-0.929,0.91C62.834,70.681,61.029,70.688,59.225,70.688z
	 M62.368,38.384c-0.004,0-0.008,0-0.012,0c0-5.655,0-11.311,0.001-16.966c0-0.917-0.068-1.829-0.324-2.713
	c-0.228-0.784-0.612-1.458-1.419-1.802c-2.004-0.855-3.853,0.069-4.306,2.178c-0.101,0.468-0.173,0.952-0.18,1.429
	c-0.034,2.695-0.039,5.39-0.071,8.085c-0.005,0.373,0.098,0.492,0.48,0.482c1.034-0.026,2.069-0.007,3.104-0.009
	c0.504-0.001,0.865,0.196,0.869,0.736c0.004,0.54-0.345,0.744-0.855,0.74c-0.963-0.006-1.928,0.034-2.888-0.015
	c-0.575-0.029-0.783,0.15-0.709,0.718c0.067,0.517-0.216,1.178,0.123,1.522c0.313,0.317,0.961,0.075,1.46,0.097
	c0.531,0.024,0.994,0.148,0.969,0.795c-0.023,0.597-0.467,0.706-0.97,0.721c-1.594,0.047-1.575,0.051-1.588,1.689
	c-0.004,0.482,0.091,0.71,0.623,0.648c0.38-0.044,0.769-0.01,1.154-0.007c0.488,0.003,0.786,0.236,0.781,0.738
	c-0.006,0.504-0.318,0.704-0.8,0.729c-0.57,0.029-1.375-0.261-1.651,0.119c-0.29,0.397-0.086,1.155-0.098,1.756
	c-0.001,0.096,0.014,0.194-0.002,0.288c-0.096,0.574,0.083,0.808,0.719,0.765c0.91-0.063,1.828-0.012,2.742-0.017
	c0.54-0.003,0.998,0.14,0.989,0.772c-0.009,0.592-0.448,0.729-0.96,0.726c-0.963-0.005-1.926,0.021-2.888-0.011
	c-0.462-0.016-0.613,0.111-0.611,0.595c0.019,4.404,0.02,8.808-0.003,13.212c-0.003,0.511,0.184,0.573,0.615,0.568
	c1.66-0.021,3.322-0.04,4.981,0.008c0.606,0.018,0.739-0.147,0.737-0.743C62.357,50.272,62.368,44.328,62.368,38.384z
	 M59.172,59.954c1.899,0,3.799,0.003,5.698-0.001c0.775-0.001,1.161-0.268,1.119-0.795c-0.056-0.683-0.555-0.747-1.099-0.746
	c-3.775,0.004-7.551,0.001-11.327,0.003c-0.76,0-1.183,0.285-1.127,0.793c0.072,0.657,0.557,0.752,1.109,0.749
	C55.421,59.949,57.297,59.954,59.172,59.954z M59.237,69.215c1.201,0,2.402,0,3.604,0c1.258,0,1.235,0,1.255-1.286
	c0.008-0.466-0.11-0.599-0.587-0.594c-2.618,0.026-5.237,0.016-7.855,0.017c-1.266,0.001-1.242,0.001-1.261,1.283
	c-0.008,0.472,0.121,0.603,0.593,0.592C56.402,69.195,57.82,69.215,59.237,69.215z M59.985,63.603c0-0.408,0-0.816-0.001-1.225
	c0-1.054,0.001-1.043-1.082-0.964c-0.269,0.02-0.378,0.078-0.375,0.366c0.013,1.225,0.013,2.449,0.001,3.674
	c-0.007,0.714,0.522,0.366,0.827,0.419c0.334,0.058,0.677,0.077,0.639-0.471C59.953,64.805,59.984,64.203,59.985,63.603z"/>
<path fill-rule="evenodd" clip-rule="evenodd" fill="#175E8E" d="M17.931,26.758c1.37,0,2.74,0.006,4.109-0.003
	c0.537-0.004,1.002,0.114,1.006,0.746c0.004,0.649-0.478,0.732-1.008,0.731c-2.787-0.007-5.575-0.009-8.362,0.002
	c-0.52,0.002-0.961-0.132-0.978-0.701c-0.017-0.605,0.421-0.785,0.979-0.78C15.096,26.766,16.514,26.758,17.931,26.758z"/>
<path fill-rule="evenodd" clip-rule="evenodd" fill="#175E8E" d="M40.679,53.024c-0.672,0-1.344,0.007-2.016-0.003
	c-0.481-0.007-0.868-0.181-0.885-0.729c-0.018-0.6,0.393-0.774,0.903-0.776c1.32-0.008,2.64-0.007,3.96-0.001
	c0.508,0.002,0.935,0.164,0.924,0.76c-0.011,0.586-0.433,0.747-0.942,0.749C41.976,53.026,41.327,53.024,40.679,53.024z"/>
<path fill-rule="evenodd" clip-rule="evenodd" fill="#175E8E" d="M39.448,35.892c-0.336,0-0.673,0.019-1.008-0.004
	c-0.421-0.03-0.652-0.278-0.661-0.702c-0.009-0.432,0.249-0.702,0.643-0.731c0.645-0.047,1.296-0.042,1.941-0.005
	c0.406,0.023,0.668,0.3,0.665,0.716c-0.002,0.445-0.258,0.71-0.718,0.731c-0.287,0.013-0.576,0.002-0.863,0.002
	C39.448,35.896,39.448,35.894,39.448,35.892z"/>
</svg>
