<?xml version="1.0" encoding="utf-8"?>
<!-- Generator: Adobe Illustrator 16.0.0, SVG Export Plug-In . SVG Version: 6.00 Build 0)  -->
<!DOCTYPE svg PUBLIC "-//W3C//DTD SVG 1.1//EN" "http://www.w3.org/Graphics/SVG/1.1/DTD/svg11.dtd">
<svg version="1.1" id="Layer_1" xmlns="http://www.w3.org/2000/svg" xmlns:xlink="http://www.w3.org/1999/xlink" x="0px" y="0px"
	 width="250px" height="250px" viewBox="0 0 250 250" enable-background="new 0 0 250 250" xml:space="preserve">
<path fill-rule="evenodd" clip-rule="evenodd" fill="#FFFFFF" d="M18.928,89.741c0.786-0.555,0.626-1.466,0.782-2.228
	c1.803-8.833,6.174-15.709,14.548-19.745c6.22-2.997,12.59-5.631,19.062-7.994c7.316-2.671,15.565,0.078,19.607,6.739
	C78.315,75.39,83.536,84.379,88.497,93.5c4.185,7.694,1.493,17.099-5.824,21.938c-0.639,0.422-1.305,0.806-1.964,1.196
	c-6.173,3.656-7.544,10.362-3.234,16.074c7.594,10.064,16.073,19.332,25.303,27.915c5.17,4.807,10.568,9.347,16.204,13.601
	c5.698,4.299,12.439,2.95,16.086-3.211c5.873-9.924,15.34-12.408,25.34-6.645c7.79,4.49,15.6,8.946,23.358,13.49
	c8.311,4.868,11.122,13.103,7.6,22.08c-2.212,5.638-4.526,11.229-7.047,16.745c-4.38,9.583-12.179,14.13-22.172,15.671
	c-0.371,0.057-0.869-0.17-1.02,0.426c-3.775,0-7.55,0-11.325,0c-0.101-0.458-0.483-0.41-0.814-0.457
	c-13.113-1.848-25.156-6.747-36.536-13.27c-31.537-18.077-56.711-42.835-76.117-73.474c-7.31-11.541-13-23.855-16.01-37.289
	c-0.476-2.126-0.378-4.379-1.396-6.385C18.928,97.851,18.928,93.796,18.928,89.741z M32.356,95.849
	c-0.066,2.389,0.233,4.748,0.642,7.088c1.855,10.646,6.039,20.439,11.335,29.751c15.036,26.438,35.52,47.942,60.165,65.552
	c11.745,8.393,24.3,15.32,38.351,19.146c6.59,1.795,13.266,2.881,20.054,1.112c3.229-0.842,6.286-2.167,8.006-5.247
	c3.407-6.101,5.794-12.659,8.298-19.158c0.67-1.738,0.051-3.154-1.451-4.168c-0.865-0.585-1.789-1.083-2.695-1.605
	c-7.368-4.251-14.733-8.511-22.113-12.741c-2.633-1.509-4.387-1.013-5.941,1.585c-0.323,0.538-0.623,1.09-0.954,1.622
	c-7.47,11.973-23.229,15.071-34.525,6.609c-17.224-12.9-32.277-28.013-45.216-45.207c-4.162-5.531-5.575-11.816-4.305-18.613
	c1.41-7.544,5.679-13.044,12.35-16.768c2.86-1.596,3.314-3.386,1.678-6.23c-4.591-7.979-9.194-15.95-13.811-23.913
	c-1.371-2.364-2.806-2.945-5.215-1.988c-5.501,2.188-10.975,4.435-16.373,6.879c-4.045,1.831-6.271,4.944-7.4,9.039
	C32.579,90.964,32.279,93.387,32.356,95.849z"/>
<path fill-rule="evenodd" clip-rule="evenodd" fill="#FFFFFF" d="M233.695,113.65c-1.05,1.871-0.813,4.002-1.151,6.006
	c-3.062,18.09-10.999,33.68-23.76,46.836c-3.08,3.176-7.192,3.51-10.028,0.821c-2.835-2.688-2.736-6.91,0.304-10.049
	c11.384-11.752,18.409-25.671,20.493-41.919c2.756-21.489-2.684-40.818-16.648-57.356c-15.614-18.493-35.879-27.334-60.052-26.43
	c-18.19,0.681-33.994,7.598-47.318,20.054c-1.529,1.43-2.938,3.018-5.19,3.31c-2.981,0.386-5.704-0.968-7.017-3.505
	c-1.354-2.617-0.885-5.719,1.293-7.902c7.371-7.387,15.804-13.247,25.296-17.599c8.571-3.929,17.549-6.335,26.896-7.441
	c0.432-0.051,1.021,0.198,1.243-0.463c5.173,0,10.347,0,15.521,0c0.069,0.335,0.313,0.389,0.607,0.412
	c5.93,0.452,11.771,1.473,17.399,3.367c32.702,11.001,52.905,33.321,60.5,67.02c0.695,3.085,0.654,6.287,1.611,9.32
	C233.695,103.304,233.695,108.477,233.695,113.65z"/>
<path fill-rule="evenodd" clip-rule="evenodd" fill="#FFFFFF" d="M122.473,122.914c6.219,0,12.438-0.036,18.657,0.014
	c3.267,0.026,5.713,1.869,6.626,4.794c0.846,2.706-0.062,5.508-2.365,7.271c-1.204,0.922-2.561,1.351-4.09,1.349
	c-10.974-0.014-21.947,0.023-32.921-0.021c-5.348-0.022-8.403-5.021-6.055-9.844c3.513-7.218,9.206-12.561,15.271-17.569
	c3.931-3.247,8.072-6.234,11.847-9.674c2.005-1.826,3.188-3.95,3.346-6.72c0.234-4.119-1.541-7.01-5.441-8.416
	c-2.439-0.879-4.921-0.938-7.405-0.204c-3.258,0.963-4.93,3.235-4.951,6.665c-0.007,1.184,0.168,2.375-0.167,3.544
	c-0.902,3.142-3.902,5.17-7.186,4.859c-3.252-0.308-5.711-2.956-6.021-6.482c-0.953-10.849,5.91-19.945,16.621-22.019
	c5.439-1.052,10.715-0.521,15.742,1.838c12.544,5.886,16.386,22.329,7.801,33.256c-2.703,3.439-6.113,6.12-9.488,8.837
	c-3.351,2.697-6.714,5.379-10.072,8.067C122.304,122.612,122.388,122.763,122.473,122.914z"/>
<path fill-rule="evenodd" clip-rule="evenodd" fill="#FFFFFF" d="M191.188,92.213c0.003,4.96,0.037,9.921-0.022,14.88
	c-0.014,1.182,0.19,1.663,1.538,1.783c3.862,0.345,6.455,3.155,6.431,6.676c-0.023,3.54-2.592,6.244-6.494,6.605
	c-1.215,0.112-1.515,0.523-1.471,1.645c0.075,1.883,0.076,3.774,0.006,5.658c-0.155,4.117-3.012,6.937-6.886,6.872
	c-3.746-0.062-6.43-2.923-6.519-6.985c-0.034-1.606-0.127-3.226,0.025-4.817c0.171-1.799-0.338-2.385-2.259-2.353
	c-7.474,0.124-14.949,0.082-22.425,0.037c-4.15-0.025-6.852-2.308-7.271-6.019c-0.225-1.983,0.439-3.689,1.696-5.215
	c10.523-12.772,21.027-25.562,31.563-38.324c2.046-2.478,4.737-3.242,7.475-2.298c2.842,0.979,4.533,3.248,4.588,6.557
	C191.247,82.012,191.185,87.113,191.188,92.213z M177.777,96.079c-0.131-0.082-0.263-0.163-0.394-0.245
	c-3.468,4.209-6.935,8.419-10.69,12.98c3.433,0,6.472-0.064,9.507,0.029c1.338,0.042,1.627-0.455,1.603-1.688
	C177.731,103.464,177.777,99.771,177.777,96.079z"/>
</svg>
