<?xml version="1.0" encoding="utf-8"?>
<!-- Generator: Adobe Illustrator 16.0.0, SVG Export Plug-In . SVG Version: 6.00 Build 0)  -->
<!DOCTYPE svg PUBLIC "-//W3C//DTD SVG 1.1//EN" "http://www.w3.org/Graphics/SVG/1.1/DTD/svg11.dtd">
<svg version="1.1" id="Capa_1" xmlns="http://www.w3.org/2000/svg" xmlns:xlink="http://www.w3.org/1999/xlink" x="0px" y="0px"
	 width="512px" height="512px" viewBox="0 0 512 512" enable-background="new 0 0 512 512" xml:space="preserve">
<g>
	<g>
		<path fill="#3B72ED" d="M461.908,201.071c6.35-78.312-58.759-140.397-131.527-140.397c-26.709,0-52.309,7.962-74.28,23.081
			c-22.072-15.118-47.571-23.081-74.28-23.081c-72.869,0-136.769,60.069-131.527,140.397H0V217.6h54.022
			C81.234,306.897,256,451.326,256,451.326S429.354,308.813,457.978,217.6H512v-16.529H461.908z M256,429.758
			C228.082,405.77,98.57,291.881,71.257,217.6h40.919l26.205-45.959l34.369,103.005l17.638-44.044l33.764,75.893l49.185-147.452
			l30.74,76.8l39.307-62.992l23.987,104.113l49.486-59.364h23.987C413.43,291.881,283.918,405.77,256,429.758z M445.178,201.071
			h-36.183l-33.058,39.71l-25.5-110.564l-43.237,69.14l-35.376-88.391l-49.991,149.871l-32.353-72.769L174.06,226.57l-31.748-95.244
			l-39.811,69.644H66.822c-3.83-72.466,51.099-123.767,114.897-123.767c44.447,0,74.28,27.011,74.28,27.011
			s29.732-27.011,74.28-27.011C394.079,77.203,451.527,132.132,445.178,201.071z"/>
	</g>
</g>
</svg>
