<?xml version="1.0" encoding="utf-8"?>
<!-- Generator: Adobe Illustrator 16.0.0, SVG Export Plug-In . SVG Version: 6.00 Build 0)  -->
<!DOCTYPE svg PUBLIC "-//W3C//DTD SVG 1.1//EN" "http://www.w3.org/Graphics/SVG/1.1/DTD/svg11.dtd">
<svg version="1.1" id="Layer_1" xmlns="http://www.w3.org/2000/svg" xmlns:xlink="http://www.w3.org/1999/xlink" x="0px" y="0px"
	 width="100px" height="100px" viewBox="0 0 100 100" enable-background="new 0 0 100 100" xml:space="preserve">
<path fill-rule="evenodd" clip-rule="evenodd" fill="#396CF0" d="M2.309,91.677c0-15.396,0-30.791,0-46.186
	c0.146-0.029,0.183-0.142,0.211-0.268c0.494-2.167,1.85-3.759,3.403-5.258c4.253-4.104,8.455-8.259,12.71-12.359
	c0.676-0.651,1.065-1.277,0.969-2.254c-0.098-0.991-0.038-2-0.019-3c0.077-4.088,2.492-7.258,6.415-8.31
	c1.895-0.507,3.856-0.25,5.79-0.27c0.504-0.005,0.868-0.137,1.23-0.499c2.082-2.075,4.195-4.118,6.286-6.184
	c1.92-1.896,4.125-3.308,6.719-4.111c0.817-0.253,1.694-0.275,2.47-0.671c1.251,0,2.503,0,3.755,0
	c0.039,0.147,0.152,0.163,0.282,0.176c2.641,0.265,5.016,1.227,7.142,2.793c2.252,1.659,4.06,3.799,6.088,5.7
	c0.958,0.897,1.748,2.169,2.876,2.634c1.126,0.464,2.579,0.132,3.889,0.148c0.156,0.002,0.313-0.002,0.47,0.002
	c4.051,0.099,7.152,2.475,8.248,6.375c0.472,1.68,0.328,3.419,0.269,5.131c-0.035,1.023,0.289,1.719,1.02,2.431
	c3.356,3.276,6.651,6.616,9.969,9.933c0.266,0.266,0.526,0.535,0.797,0.795c2.169,2.094,4.404,4.141,5.138,7.251
	c0,15.333,0,30.666,0,45.999c-0.548,0.489-0.475,1.242-0.783,1.84c-1.741,3.369-4.534,4.922-8.28,4.921
	c-26-0.005-51.999-0.003-77.999-0.003c-0.219,0-0.438,0.004-0.657-0.005c-3.873-0.15-6.845-2.397-8.028-6.06
	C2.606,92.119,2.63,91.8,2.309,91.677z M50.625,19.394c-7.381,0-14.763-0.002-22.145,0.001c-2.186,0.001-3.265,1.091-3.266,3.295
	c-0.002,12.386,0.002,24.772-0.014,37.158c0,0.551,0.171,0.918,0.562,1.291c1.491,1.427,2.976,2.863,4.403,4.354
	c0.526,0.551,0.802,0.479,1.3-0.023c2.948-2.979,5.917-5.938,8.905-8.876c5.955-5.856,14.521-5.828,20.437,0.063
	c2.97,2.958,5.926,5.93,8.854,8.929c0.47,0.48,0.7,0.457,1.144-0.002c1.476-1.53,2.981-3.034,4.512-4.51
	c0.444-0.428,0.602-0.862,0.601-1.469c-0.016-12.261-0.012-24.522-0.013-36.783c0-2.392-1.032-3.428-3.416-3.428
	C65.2,19.393,57.913,19.394,50.625,19.394z M12,92.56c0.061,0.066,0.121,0.133,0.181,0.199c25.481,0,50.962,0,76.579,0
	c-0.203-0.217-0.317-0.345-0.438-0.467c-10.527-10.579-21.054-21.157-31.586-31.73c-0.551-0.553-1.142-1.068-1.827-1.456
	c-3.673-2.075-7.558-1.497-10.685,1.611c-10.521,10.452-21.034,20.91-31.555,31.361C12.475,92.27,12.224,92.4,12,92.56z
	 M7.976,88.604c0.059,0.041,0.118,0.083,0.176,0.124c0.202-0.235,0.388-0.485,0.607-0.703c5.788-5.76,11.566-11.529,17.388-17.254
	c0.634-0.624,0.5-0.892-0.044-1.425c-5.812-5.691-11.6-11.406-17.387-17.121c-0.21-0.208-0.345-0.493-0.515-0.742
	c-0.075,0.065-0.15,0.132-0.225,0.198C7.976,63.988,7.976,76.296,7.976,88.604z M92.544,88.771c0.072-0.07,0.145-0.14,0.216-0.21
	c0-12.271,0-24.54,0-36.881c-0.128,0.086-0.205,0.121-0.261,0.177C86.551,57.8,80.61,63.751,74.646,69.677
	c-0.487,0.483-0.214,0.679,0.108,1.002c5.783,5.8,11.561,11.604,17.333,17.413C92.275,88.282,92.393,88.543,92.544,88.771z
	 M19.562,34.546c-3.429,3.348-6.724,6.584-10.047,9.791c-0.513,0.495-0.091,0.684,0.173,0.943c3.115,3.077,6.234,6.149,9.359,9.215
	c0.133,0.131,0.219,0.388,0.516,0.313C19.562,48.115,19.562,41.431,19.562,34.546z M81.577,34.656c0,6.813,0,13.39,0,20.04
	c0.128-0.083,0.204-0.117,0.26-0.172c3.117-3.112,6.224-6.236,9.358-9.331c0.423-0.417,0.283-0.621-0.058-0.954
	c-1.296-1.267-2.569-2.556-3.848-3.839C85.425,38.527,83.563,36.653,81.577,34.656z M40.591,13.716c6.702,0,13.236,0,19.946,0
	c-1.508-1.387-2.705-2.88-4.273-3.958c-2.593-1.781-5.427-2.193-8.477-1.404C44.691,9.155,42.875,11.601,40.591,13.716z"/>
<path fill-rule="evenodd" clip-rule="evenodd" fill="#396CF0" d="M50.569,47.556c-5.565,0-11.131,0.011-16.696-0.005
	c-2.203-0.006-3.621-1.966-2.805-3.872c0.522-1.218,1.513-1.762,2.833-1.758c3.22,0.008,6.44,0.002,9.661,0.002
	c7.878,0,15.757-0.006,23.636,0.004c2.222,0.003,3.624,1.897,2.874,3.831c-0.444,1.143-1.473,1.793-2.901,1.795
	C61.637,47.56,56.103,47.556,50.569,47.556z"/>
<path fill-rule="evenodd" clip-rule="evenodd" fill="#396CF0" d="M39.362,30.659c1.78,0,3.561-0.012,5.342,0.003
	c1.795,0.015,3.06,1.219,3.034,2.857c-0.025,1.601-1.273,2.762-3.028,2.769c-3.624,0.013-7.248,0.015-10.871-0.001
	c-1.74-0.008-2.986-1.205-2.988-2.809c-0.001-1.604,1.244-2.798,2.982-2.815C35.676,30.644,37.519,30.659,39.362,30.659z"/>
</svg>
