<?xml version="1.0" encoding="utf-8"?>
<!-- Generator: Adobe Illustrator 16.0.0, SVG Export Plug-In . SVG Version: 6.00 Build 0)  -->
<!DOCTYPE svg PUBLIC "-//W3C//DTD SVG 1.1//EN" "http://www.w3.org/Graphics/SVG/1.1/DTD/svg11.dtd">
<svg version="1.1" id="Layer_1" xmlns="http://www.w3.org/2000/svg" xmlns:xlink="http://www.w3.org/1999/xlink" x="0px" y="0px"
	 width="100px" height="100px" viewBox="0 0 100 100" enable-background="new 0 0 100 100" xml:space="preserve">
<path fill-rule="evenodd" clip-rule="evenodd" fill="#396CF0" d="M-0.149,63.547c0-4.377,0-8.754,0-13.131
	c0.267-0.055,0.21-0.295,0.258-0.466c0.63-2.295,1.888-4.145,3.941-5.382c0.501-0.302,0.497-0.688,0.507-1.144
	c0.095-4.052,0.441-8.075,1.375-12.031C9.318,17.041,18.009,7.6,32.104,3.205C37.788,1.432,43.65,0.83,49.58,0.803
	c7.09-0.032,14.067,0.726,20.764,3.205C80.713,7.848,88.109,14.786,92.19,25.141c2.315,5.874,3.185,12.008,3.289,18.277
	c0.01,0.58,0.158,0.944,0.677,1.252c1.321,0.784,2.258,1.941,3.013,3.27c0.479,0.845,0.595,1.816,1.027,2.671
	c0,4.312,0,8.624,0,12.936c-0.386,0.273-0.343,0.737-0.482,1.116c-1.264,3.416-3.657,5.453-7.284,5.979
	c-2.078,0.302-4.174,0.15-6.258,0.111c-1.035-0.019-1.478,0.294-1.877,1.272c-4.73,11.594-12.643,20.169-24.251,25.107
	c-4.847,2.062-9.896,2.749-15.11,1.54c-7.679-1.78-13.986-5.901-19.421-11.462c-4.43-4.531-7.771-9.779-9.992-15.724
	c-0.203-0.542-0.474-0.732-1.058-0.719c-1.762,0.042-3.525,0.004-5.288,0.018c-4.324,0.032-7.925-2.608-8.98-6.593
	C0.136,63.973,0.163,63.655-0.149,63.547z M25.412,77.305c0.396,0.533,0.61,0.819,0.822,1.106c3.885,5.269,8.727,9.382,14.631,12.25
	c5.27,2.56,10.621,3.193,16.151,0.916c9.896-4.077,16.869-11.158,21.18-20.869c2.743-6.178,3.361-12.711,3.122-19.428
	c-0.086-2.409-1.037-3.709-2.944-4.84c-3.201-1.899-6.626-3.164-10.212-4.056c-2.298-0.572-4.621-1-7.201-1.253
	c1.27,1.643,2.223,3.229,2.646,5.243c-2.186-1.495-4.498-2.272-6.826-3.006c-2.701-0.851-5.409-1.686-8.01-2.813
	c-4.698-2.034-8.469-5.208-11.42-9.382c-0.41-0.58-0.707-1.28-1.474-1.739c-0.12,2.732-0.42,5.326-1.354,7.789
	c-2.701,7.121-7.365,12.131-15.051,13.825c-0.578,0.127-0.674,0.402-0.704,0.927c-0.245,4.33,0.169,8.594,1.074,12.834
	c0.521,2.441,1.619,4.419,3.712,5.834c0.837,0.566,1.661,1.145,2.545,1.638c4.55,2.542,9.544,3.359,14.64,3.792
	c0.325,0.027,0.537-0.062,0.741-0.334c2.855-3.807,9.782-4.277,13.731-1.472c3.219,2.286,3.382,5.895,0.309,8.372
	c-2.313,1.865-5.063,2.335-7.942,1.966c-2.57-0.329-4.85-1.283-6.356-3.556c-0.207-0.312-0.5-0.258-0.782-0.281
	c-3.026-0.252-6.034-0.628-8.987-1.355C29.467,78.925,27.544,78.237,25.412,77.305z M90.048,40.838
	c-0.346-5.454-1.399-10.853-3.774-15.953c-3.368-7.237-8.85-12.222-16.173-15.25C65.76,7.839,61.224,6.86,56.552,6.455
	C47.479,5.668,38.561,6.178,29.999,9.62c-4.707,1.892-8.795,4.689-12.037,8.625c-5.343,6.49-7.396,14.164-7.912,22.366
	c-0.052,0.828-0.54,1.992-0.004,2.407c0.559,0.432,1.685,0.099,2.557,0.168c0.6,0.048,0.741-0.188,0.833-0.746
	c0.708-4.289,1.831-8.462,3.655-12.423c3.877-8.419,10.051-14.359,18.944-17.224c8.407-2.708,16.956-2.809,25.492-0.731
	c8.691,2.115,15.356,7.081,19.841,14.87c2.663,4.626,4.241,9.637,5.115,14.88c0.149,0.892,0.278,1.637,1.497,1.379
	c0.688-0.146,1.639,0.29,2.065-0.166C90.474,42.569,89.98,41.669,90.048,40.838z"/>
<path fill-rule="evenodd" clip-rule="evenodd" fill="#396CF0" d="M37.033,60.081c-2.843,0.026-5.208-2.309-5.199-5.135
	c0.008-2.791,2.321-5.108,5.117-5.127c2.845-0.02,5.206,2.316,5.198,5.143C42.14,57.764,39.851,60.055,37.033,60.081z"/>
<path fill-rule="evenodd" clip-rule="evenodd" fill="#396CF0" d="M62.945,60.076c-2.826-0.07-5.104-2.412-5.045-5.184
	c0.063-2.86,2.412-5.123,5.267-5.071c2.787,0.05,5.106,2.437,5.047,5.195C68.153,57.875,65.788,60.146,62.945,60.076z"/>
</svg>
