<?xml version="1.0" encoding="utf-8"?>
<!-- Generator: Adobe Illustrator 16.0.0, SVG Export Plug-In . SVG Version: 6.00 Build 0)  -->
<!DOCTYPE svg PUBLIC "-//W3C//DTD SVG 1.1//EN" "http://www.w3.org/Graphics/SVG/1.1/DTD/svg11.dtd">
<svg version="1.1" id="Layer_1" xmlns="http://www.w3.org/2000/svg" xmlns:xlink="http://www.w3.org/1999/xlink" x="0px" y="0px"
	 width="100px" height="100px" viewBox="0 0 100 100" enable-background="new 0 0 100 100" xml:space="preserve">
<g>
	<path fill-rule="evenodd" clip-rule="evenodd" fill="#010101" d="M3.652,37.705c0.335-0.156,0.279-0.503,0.363-0.773
		c1.039-3.334,4.12-5.694,7.616-5.779c1.642-0.04,3.286-0.047,4.927,0.005c0.702,0.022,1.038-0.178,1.345-0.848
		c3.525-7.706,9.036-13.575,16.628-17.346c18.151-9.016,39.848-1.227,48.191,17.246c0.319,0.709,0.662,0.96,1.456,0.957
		c2.063-0.009,4.139-0.205,6.192,0.131c3.697,0.604,6.64,3.9,6.713,7.669c0.075,3.892,0.077,7.787,0.002,11.679
		c-0.082,4.262-3.661,7.765-7.928,7.86c-1.794,0.041-3.589,0.035-5.383-0.002c-0.518-0.01-0.721,0.182-0.924,0.625
		c-4.755,10.367-12.605,17.126-23.614,20.169c-0.521,0.144-0.65,0.346-0.656,0.858c-0.015,1.486,0.135,2.978-0.132,4.459
		c-0.741,4.13-4.403,6.99-8.657,6.743c-3.987-0.231-7.377-3.634-7.609-7.637c-0.242-4.175,2.634-7.888,6.702-8.605
		c1.947-0.343,3.937-0.188,5.899-0.485c12.065-1.827,21.911-10.741,24.799-22.516c4.082-16.647-6.258-33.183-23.015-36.806
		c-16.282-3.521-32.877,7.599-35.788,23.93c-0.996,5.586-0.432,11.008,1.357,16.345c0.27,0.805,0.535,1.61,0.814,2.411
		c0.134,0.383,0.063,0.534-0.385,0.532c-3.802-0.021-7.607,0.073-11.405-0.061c-3.273-0.114-6.165-2.573-7.149-5.749
		c-0.084-0.27-0.03-0.616-0.36-0.776C3.652,47.196,3.652,42.45,3.652,37.705z"/>
	<path fill-rule="evenodd" clip-rule="evenodd" d="M39.158,69.473c-4.198,0-8.396-0.018-12.593,0.018
		c-0.677,0.005-0.878-0.147-0.844-0.839c0.063-1.274,0.042-2.555,0.007-3.832c-0.016-0.558,0.042-0.807,0.727-0.887
		c1.867-0.22,3.257-1.235,4.166-2.896c0.332-0.605,0.328-1.08-0.131-1.706c-6.779-9.232-6.336-22.027,1.272-30.558
		c6.854-7.685,15.533-10.402,25.408-7.554c9.778,2.82,15.732,9.631,17.489,19.702c2.418,13.858-7.648,26.957-21.64,28.381
		c-4.212,0.429-8.45,0.09-12.675,0.17C39.949,69.479,39.554,69.473,39.158,69.473z M39.39,47.568c0.76,0,1.521-0.022,2.279,0.009
		c0.408,0.017,0.512-0.124,0.507-0.517c-0.021-1.489-0.021-2.979,0-4.468c0.006-0.405-0.124-0.514-0.519-0.509
		c-1.489,0.021-2.979,0.022-4.467-0.001c-0.411-0.006-0.511,0.134-0.506,0.521c0.019,1.489,0.021,2.979-0.001,4.468
		c-0.006,0.41,0.129,0.519,0.519,0.504C37.93,47.548,38.661,47.568,39.39,47.568z M50.292,47.528c0.908,0,2.131,0.356,2.641-0.094
		c0.586-0.519,0.177-1.766,0.174-2.695c-0.003-0.867,0.398-2.027-0.169-2.52c-0.488-0.426-1.619-0.125-2.465-0.125
		c-0.908,0.001-2.127-0.324-2.64,0.133c-0.588,0.524-0.156,1.767-0.181,2.696c-0.023,0.846-0.305,1.98,0.121,2.464
		C48.265,47.949,49.425,47.49,50.292,47.528z M64.023,44.914c0-0.907,0.357-2.134-0.094-2.637c-0.52-0.581-1.766-0.155-2.696-0.177
		c-0.845-0.02-1.981-0.3-2.461,0.127c-0.557,0.496-0.146,1.654-0.168,2.523c-0.022,0.906-0.326,2.132,0.133,2.636
		c0.525,0.577,1.768,0.153,2.697,0.175c0.846,0.02,1.984,0.304,2.462-0.124C64.45,46.942,63.999,45.782,64.023,44.914z"/>
</g>
</svg>
