<?xml version="1.0" encoding="utf-8"?>
<!-- Generator: Adobe Illustrator 16.0.0, SVG Export Plug-In . SVG Version: 6.00 Build 0)  -->
<!DOCTYPE svg PUBLIC "-//W3C//DTD SVG 1.1//EN" "http://www.w3.org/Graphics/SVG/1.1/DTD/svg11.dtd">
<svg version="1.1" id="Layer_1" xmlns="http://www.w3.org/2000/svg" xmlns:xlink="http://www.w3.org/1999/xlink" x="0px" y="0px"
	 width="100px" height="100px" viewBox="0 0 100 100" enable-background="new 0 0 100 100" xml:space="preserve">
<g>
	<path fill-rule="evenodd" clip-rule="evenodd" d="M8.414,95.934c-0.172-0.39,0.229-0.414,0.387-0.538
		c10.325-8.049,20.66-16.084,30.987-24.13c0.328-0.256,0.65-0.354,1.057-0.353c6.134,0.009,12.269,0.011,18.403-0.003
		c0.448-0.001,0.782,0.137,1.128,0.405c10.281,8.009,20.571,16.008,30.85,24.021c0.184,0.143,0.609,0.172,0.449,0.598
		C63.922,95.934,36.168,95.934,8.414,95.934z"/>
	<path fill-rule="evenodd" clip-rule="evenodd" fill="#020202" d="M50.76,4.453c2.509,1.636,4.614,3.771,6.948,5.624
		c0.342,0.271,0.664,0.566,1.092,0.934c-5.863,0-11.606,0-17.553,0c2.708-2.247,5.306-4.402,7.904-6.557
		C49.688,4.453,50.224,4.453,50.76,4.453z"/>
	<path fill-rule="evenodd" clip-rule="evenodd" fill="#010101" d="M50.099,16.424c8.453,0,16.906,0,25.36,0
		c2.15,0,3.173,1.016,3.173,3.156c0.001,10.18-0.006,20.359,0.017,30.539c0.001,0.641-0.221,1.007-0.711,1.386
		C72.08,56.037,66.238,60.589,60.4,65.145c-0.368,0.288-0.732,0.426-1.211,0.425c-6.102-0.016-12.204-0.014-18.305-0.002
		c-0.442,0.001-0.787-0.112-1.136-0.385c-5.886-4.591-11.778-9.175-17.682-13.743c-0.438-0.339-0.625-0.676-0.625-1.25
		c0.021-10.239,0.014-20.478,0.016-30.717c0-2.009,1.059-3.047,3.103-3.047C33.073,16.423,41.586,16.424,50.099,16.424z
		 M57.013,29.846c-0.011,0.088-0.021,0.176-0.031,0.263c-1.77-0.399-2.701-0.016-3.502,1.591c-0.274,0.553-0.505,0.207-0.757,0.112
		c-3.662-1.386-6.936-0.645-9.728,1.983c-4.046,3.807-4.532,10.847-1.237,15.583c2.833,4.072,8.081,5.572,12.321,2.514
		c0.469-0.338,0.581-0.059,0.812,0.206c1.207,1.391,2.699,2.232,4.571,2.256c3.51,0.044,6.179-1.543,7.839-4.547
		c2.059-3.724,2.84-7.766,1.937-11.983C67.02,27.473,56.268,20.734,45.93,23.154c-10.165,2.379-16.581,11.668-15.203,22.009
		c1.224,9.181,9.298,16.516,18.505,16.812c1.806,0.058,3.06-0.968,3.133-2.561c0.072-1.585-1.094-2.705-2.913-2.801
		c-5.728-0.3-10.829-4.098-12.763-9.5c-1.918-5.36-0.427-11.4,3.775-15.291C44.962,27.658,52.148,26.799,57.013,29.846z"/>
	<path fill-rule="evenodd" clip-rule="evenodd" fill="#010101" d="M4.525,44.569c2.001,1.556,3.916,3.044,5.829,4.533
		c8.007,6.228,16.014,12.456,24.024,18.678c0.364,0.282,0.658,0.42,0.081,0.868c-9.875,7.651-19.732,15.328-29.593,22.999
		c-0.084,0.065-0.174,0.123-0.341,0.241C4.525,76.086,4.525,60.396,4.525,44.569z"/>
	<path fill-rule="evenodd" clip-rule="evenodd" fill="#010101" d="M95.564,44.59c0,15.807,0,31.495,0,47.309
		c-2.025-1.572-3.967-3.076-5.904-4.584c-7.935-6.172-15.862-12.354-23.814-18.503c-0.638-0.493-0.607-0.676,0.008-1.151
		c9.71-7.522,19.4-15.071,29.096-22.613C95.128,44.91,95.312,44.778,95.564,44.59z"/>
	<path fill-rule="evenodd" clip-rule="evenodd" fill="#020202" d="M92.996,39.775c-2.977,2.316-5.916,4.603-8.954,6.967
		c0-4.876,0-9.611,0-14.497C87.051,34.776,89.99,37.248,92.996,39.775z"/>
	<path fill-rule="evenodd" clip-rule="evenodd" fill="#020202" d="M16.073,32.243c0,4.892,0,9.612,0,14.337
		c-0.313,0.081-0.433-0.174-0.603-0.305c-2.562-1.98-5.1-3.991-7.687-5.938c-0.651-0.49-0.568-0.69,0.009-1.164
		c2.505-2.052,4.966-4.16,7.443-6.246C15.477,32.725,15.724,32.528,16.073,32.243z"/>
	<path fill-rule="evenodd" clip-rule="evenodd" fill="#020202" d="M57.013,29.846c6.233,2.987,8.952,10.863,5.846,16.987
		c-0.574,1.133-1.418,1.983-2.769,2.135c-0.814,0.091-1.314-0.267-1.455-1.067c-0.056-0.318-0.039-0.652-0.038-0.979
		C58.608,42.281,58.604,37.64,58.65,33c0.013-1.333-0.491-2.285-1.669-2.89C56.991,30.022,57.002,29.934,57.013,29.846z"/>
	<path fill-rule="evenodd" clip-rule="evenodd" fill="#030303" d="M53.257,42.106c-0.035,1.573-0.364,3.068-1.274,4.381
		c-1.449,2.091-3.706,2.221-5.416,0.331c-1.883-2.082-2.173-6.008-0.587-8.329c0.874-1.279,2.057-2.1,3.665-1.961
		c1.691,0.147,2.591,1.295,3.141,2.781C53.119,40.21,53.264,41.145,53.257,42.106z"/>
</g>
</svg>
