<?xml version="1.0" encoding="utf-8"?>
<!-- Generator: Adobe Illustrator 16.0.0, SVG Export Plug-In . SVG Version: 6.00 Build 0)  -->
<!DOCTYPE svg PUBLIC "-//W3C//DTD SVG 1.1//EN" "http://www.w3.org/Graphics/SVG/1.1/DTD/svg11.dtd">
<svg version="1.1" id="Capa_1" xmlns="http://www.w3.org/2000/svg" xmlns:xlink="http://www.w3.org/1999/xlink" x="0px" y="0px"
	 width="512px" height="512px" viewBox="0 0 512 512" enable-background="new 0 0 512 512" xml:space="preserve">
<g>
	<g>
		<g>
			<path fill="#3B72ED" d="M454.759,258.318c-23.483-66.016-90.91-106.936-160.252-97.361c-8.567,1.109-16.227-2.52-20.763-9.776
				c-4.535-7.257-4.334-15.824,0.504-22.979l51.503-75.792L286.443,0c0,0-115.3,66.621-110.261,216.391l2.419,54.728
				c1.108,26.204-15.521,50.091-40.517,58.054c-23.181,7.357-41.323,25.6-48.58,48.781L47.175,512h72.264l18.646-45.758
				c14.614-27.716,38.602-22.979,47.571-19.049l46.262,20.863c102.803,43.943,175.27-32.252,175.27-32.252
				C497.392,355.175,454.759,258.318,454.759,258.318z M396.907,423.005c0,0-66.822,69.946-158.236,30.136l-46.262-20.863
				c-12.397-7.156-52.611-10.583-69.442,27.817l-14.413,35.577H69.549l35.376-112.78c5.644-18.041,19.855-32.353,37.896-38.098
				c32.05-10.18,53.417-40.819,52.006-74.382l-2.419-54.727c-3.326-75.792,30.337-147.25,90.406-192.907l22.677,30.135
				l-44.951,66.117c-8.466,12.397-8.768,28.019-0.906,40.819c7.962,12.8,22.072,19.452,36.988,17.335
				c61.683-8.466,121.752,27.918,142.614,86.677C439.237,263.861,479.149,347.817,396.907,423.005z"/>
		</g>
	</g>
	<g>
		<g>
			<path fill="#3B72ED" d="M246.229,298.633c-13.606,0-24.592,11.087-24.592,24.592c0,13.506,11.086,24.593,24.592,24.593
				c13.506,0,24.593-11.087,24.593-24.593C270.822,309.72,259.836,298.633,246.229,298.633z M246.229,331.389
				c-4.535,0-8.164-3.729-8.164-8.164c0-4.535,3.729-8.163,8.164-8.163s8.164,3.729,8.164,8.163
				C254.494,327.761,250.765,331.389,246.229,331.389z"/>
		</g>
	</g>
	<g>
		<g>
			<path fill="#3B72ED" d="M328.371,379.666c-13.605,0-24.592,11.087-24.592,24.592c0,13.506,11.087,24.593,24.592,24.593
				c13.506,0,24.593-11.087,24.593-24.593C352.964,390.753,341.877,379.666,328.371,379.666z M328.371,412.422
				c-4.535,0-8.163-3.729-8.163-8.164c0-4.535,3.729-8.163,8.163-8.163s8.164,3.729,8.164,8.163
				C336.535,408.794,332.806,412.422,328.371,412.422z"/>
		</g>
	</g>
	<g>
		<g>
			<path fill="#3B72ED" d="M352.964,242.293c-21.972,0-39.912,17.939-39.912,39.912c0,21.971,17.94,39.912,39.912,39.912
				s39.911-17.941,39.911-39.912C392.875,260.233,374.936,242.293,352.964,242.293z M352.964,305.588
				c-12.901,0-23.483-10.482-23.483-23.484c0-12.9,10.481-23.482,23.483-23.482c12.9,0,23.483,10.481,23.483,23.482
				C376.447,295.105,365.864,305.588,352.964,305.588z"/>
		</g>
	</g>
</g>
</svg>
