<?xml version="1.0" encoding="utf-8"?>
<!-- Generator: Adobe Illustrator 16.0.0, SVG Export Plug-In . SVG Version: 6.00 Build 0)  -->
<!DOCTYPE svg PUBLIC "-//W3C//DTD SVG 1.1//EN" "http://www.w3.org/Graphics/SVG/1.1/DTD/svg11.dtd">
<svg version="1.1" id="Layer_1" xmlns="http://www.w3.org/2000/svg" xmlns:xlink="http://www.w3.org/1999/xlink" x="0px" y="0px"
	 width="100px" height="100px" viewBox="0 0 100 100" enable-background="new 0 0 100 100" xml:space="preserve">
<path fill-rule="evenodd" clip-rule="evenodd" fill="#396CF0" d="M46.877-0.169c2.025,0,4.051,0,6.077,0
	c1.327,0.403,2.722,0.416,4.07,0.699C66.18,2.454,73.653,7.083,79.19,14.629c6.313,8.602,8.449,18.21,6.366,28.698
	c-1.313,6.608-3.975,12.727-7.07,18.659c-6.905,13.231-15.759,25.112-25.417,36.429c-0.686,0.803-1.431,1.484-2.468,1.782
	c-0.457,0-0.915,0-1.372,0c-1.076-0.458-1.844-1.275-2.587-2.146c-5.876-6.88-11.42-14.015-16.447-21.54
	c-5.094-7.627-9.682-15.534-13.017-24.112c-1.731-4.453-3.073-9.022-3.397-13.807c-0.436-6.437,0.697-12.617,3.652-18.382
	C23.053,9.246,31.924,2.606,44.066,0.368C45.004,0.195,45.983,0.229,46.877-0.169z M50.03,54.479
	c10.088-0.028,18.306-8.299,18.246-18.364c-0.06-10.079-8.253-18.25-18.28-18.231c-10.083,0.02-18.309,8.298-18.246,18.363
	C31.813,46.327,40.013,54.506,50.03,54.479z"/>
</svg>
