<?xml version="1.0" encoding="utf-8"?>
<!-- Generator: Adobe Illustrator 16.0.0, SVG Export Plug-In . SVG Version: 6.00 Build 0)  -->
<!DOCTYPE svg PUBLIC "-//W3C//DTD SVG 1.1//EN" "http://www.w3.org/Graphics/SVG/1.1/DTD/svg11.dtd">
<svg version="1.1" id="Capa_1" xmlns="http://www.w3.org/2000/svg" xmlns:xlink="http://www.w3.org/1999/xlink" x="0px" y="0px"
	 width="512px" height="512px" viewBox="0 0 512 512" enable-background="new 0 0 512 512" xml:space="preserve">
<g>
	<g>
		<path fill="#3B72ED" d="M298.129,42.079c-95.445,0-178.897,63.093-205.304,154.205H0v16.63h205.606
			c29.43,0,53.417,23.988,53.417,53.417c0,29.229-23.685,53.115-52.913,53.317H1.915v57.751h120.139
			c40.013,58.054,105.021,92.522,176.075,92.522C416.051,469.82,512,373.871,512,255.95S416.051,42.079,298.129,42.079z
			 M205.606,196.283h-40.617c23.382-52.006,75.489-86.173,133.14-86.173c80.429,0,145.84,65.411,145.84,145.839
			c0,22.274-4.938,43.641-14.614,63.698h-55.131c15.118-12.8,24.794-31.95,24.794-53.317c0-38.601-31.346-69.946-69.947-69.946
			c-26.607,0-49.889,15.017-61.682,36.989C255.496,211.2,232.214,196.283,205.606,196.283z M329.474,319.547h-1.008
			c-29.228-0.303-52.913-24.089-52.913-53.316c0-29.431,23.987-53.418,53.417-53.418c29.431,0,53.418,23.987,53.418,53.418
			C382.388,295.458,358.702,319.345,329.474,319.547z M267.288,299.288c4.132,7.761,9.776,14.614,16.529,20.359H250.86
			C257.512,313.902,263.055,307.049,267.288,299.288z M18.444,360.668v-24.492h0.101h401.336
			c-5.846,8.87-12.699,17.135-20.46,24.492H18.444z M378.859,377.298c-23.785,15.823-51.703,24.491-80.73,24.491
			c-29.026,0-56.945-8.668-80.63-24.491H378.859z M298.129,453.19c-61.581,0-118.224-28.019-155.515-75.893h47.672
			c29.732,26.507,67.83,41.121,107.742,41.121c41.121,0,81.437-14.312,110.463-43.339c35.981-35.88,52.107-74.18,52.107-119.13
			c0-89.6-72.869-162.469-162.47-162.469c-66.62,0-126.589,41.121-150.979,102.803h-36.888
			c25.701-81.537,101.392-137.575,187.868-137.575c108.75,0,197.241,88.492,197.241,197.241S406.879,453.19,298.129,453.19z"/>
	</g>
</g>
</svg>
