<?xml version="1.0" encoding="utf-8"?>
<!-- Generator: Adobe Illustrator 16.0.0, SVG Export Plug-In . SVG Version: 6.00 Build 0)  -->
<!DOCTYPE svg PUBLIC "-//W3C//DTD SVG 1.1//EN" "http://www.w3.org/Graphics/SVG/1.1/DTD/svg11.dtd">
<svg version="1.1" id="Capa_1" xmlns="http://www.w3.org/2000/svg" xmlns:xlink="http://www.w3.org/1999/xlink" x="0px" y="0px"
	 width="512px" height="512px" viewBox="0 0 512 512" enable-background="new 0 0 512 512" xml:space="preserve">
<g>
	<g>
		<g>
			<path fill="#3B72ED" d="M512,198.198v-82.545H338.545V74.331h-165.09v41.323H0v82.545h66.016v141.103
				c-23.383,3.931-41.323,24.29-41.323,48.781c0,27.313,22.274,49.587,49.587,49.587s49.587-22.273,49.587-49.587
				c0-24.491-17.94-44.851-41.323-48.781v-75.087h346.81v75.087c-23.383,3.931-41.323,24.29-41.323,48.781
				c0,27.313,22.274,49.587,49.588,49.587s49.587-22.273,49.587-49.587c0-24.491-17.94-44.851-41.322-48.781V198.198H512z
				 M189.984,90.86h132.132v24.793H189.984V90.86z M107.339,388.183c0,18.242-14.816,33.059-33.059,33.059
				c-18.242,0-32.958-14.816-32.958-33.059s14.816-33.058,33.058-33.058C92.624,355.125,107.339,369.94,107.339,388.183z
				 M82.545,247.786v-49.588h346.81v49.588H82.545z M470.677,388.183c0,18.242-14.815,33.059-33.058,33.059
				s-33.059-14.816-33.059-33.059s14.816-33.058,33.059-33.058S470.677,369.94,470.677,388.183z M16.529,181.77v-49.587h478.941
				v49.587H16.529z"/>
		</g>
	</g>
	<g>
		<g>
			<rect x="247.735" y="305.638" fill="#3B72ED" width="16.529" height="16.529"/>
		</g>
	</g>
	<g>
		<g>
			<rect x="280.794" y="305.638" fill="#3B72ED" width="16.528" height="16.529"/>
		</g>
	</g>
	<g>
		<g>
			<rect x="214.677" y="305.638" fill="#3B72ED" width="16.529" height="16.529"/>
		</g>
	</g>
</g>
</svg>
